<?xml version="1.0" standalone="no"?>
<!DOCTYPE svg PUBLIC "-//W3C//DTD SVG 1.1//EN" "http://www.w3.org/Graphics/SVG/1.1/DTD/svg11.dtd" >
<!--
2013-9-30: Created.
-->
<svg>
<metadata>
Created by iconfont
</metadata>
<defs>

<font id="iconfont" horiz-adv-x="1024" >
  <font-face
    font-family="iconfont"
    font-weight="500"
    font-stretch="normal"
    units-per-em="1024"
    ascent="896"
    descent="-128"
  />
    <missing-glyph />
    
    <glyph glyph-name="x" unicode="x" horiz-adv-x="1001"
d="M281 543q-27 -1 -53 -1h-83q-18 0 -36.5 -6t-32.5 -18.5t-23 -32t-9 -45.5v-76h912v41q0 16 -0.5 30t-0.5 18q0 13 -5 29t-17 29.5t-31.5 22.5t-49.5 9h-133v-97h-438v97zM955 310v-52q0 -23 0.5 -52t0.5 -58t-10.5 -47.5t-26 -30t-33 -16t-31.5 -4.5q-14 -1 -29.5 -0.5
t-29.5 0.5h-32l-45 128h-439l-44 -128h-29h-34q-20 0 -45 1q-25 0 -41 9.5t-25.5 23t-13.5 29.5t-4 30v167h911zM163 247q-12 0 -21 -8.5t-9 -21.5t9 -21.5t21 -8.5q13 0 22 8.5t9 21.5t-9 21.5t-22 8.5zM316 123q-8 -26 -14 -48q-5 -19 -10.5 -37t-7.5 -25t-3 -15t1 -14.5
t9.5 -10.5t21.5 -4h37h67h81h80h64h36q23 0 34 12t2 38q-5 13 -9.5 30.5t-9.5 34.5q-5 19 -11 39h-368zM336 498v228q0 11 2.5 23t10 21.5t20.5 15.5t34 6h188q31 0 51.5 -14.5t20.5 -52.5v-227h-327z" />
    

    
    <glyph glyph-name="shoucangjia" unicode="&#13388;" d="M925.7293 469.0634c-4.4702 13.7537-16.9422 23.3382-31.383 24.1166l-254.7577 13.7337L547.7931 744.9483c-5.2037 13.4929-18.1744 22.3918-32.6352 22.3918s-27.4325-8.899-32.6352-22.3918l-91.7935-238.0346-254.7607-13.7337c-14.4408-0.7785-26.9139-10.364-31.383-24.1166-4.4692-13.7537-0.013-28.8394 11.2119-37.9573l198.0388-160.8579-65.6642-246.5279c-3.7226-13.9735 1.54-28.7975 13.2396-37.2977 6.1161-4.443 13.3335-6.6805 20.5619-6.6805 6.5998 0 13.2096 1.8627 19.0039 5.6142l214.1796 138.628 214.1796-138.628c5.7943-3.7505 12.4051-5.6142 19.0049-5.6142 7.2284 0 14.4448 2.2355 20.5609 6.6805 11.7005 8.5002 16.9632 23.3242 13.2406 37.2977l-65.6642 246.5279 198.0369 160.8579C925.7423 440.2239 930.1985 455.3097 925.7293 469.0634z"  horiz-adv-x="1000" />

    
    <glyph glyph-name="f14" unicode="&#58900;" d="M951.84384 39.164672 858.964992 176.534272c-3.65568 5.244928-11.283456 9.217024-20.578304 10.646528-9.218048 1.350656-19.068928 0-26.377216-3.8144L622.756864 86.277888c-8.582144-4.369408-12.314624-11.121664-9.852928-17.79712 2.622464-6.592512 11.123712-11.838464 21.92896-13.425664l49.975296-7.469056c-49.657856-58.3168-115.441664-93.751296-179.639296-93.751296-125.056 0-264.572928 137.21088-264.572928 333.852672 0 23.199744-31.14496 42.1888-69.599232 42.1888s-69.599232-18.989056-69.599232-42.1888c0-234.381312 177.334272-418.071552 403.770368-418.071552 127.916032 0 242.802688 57.759744 317.723648 157.154304l95.818752-14.45888c2.461696-0.319488 4.845568-0.477184 7.230464-0.477184 0.157696 0 0.157696 0 0.397312 0 16.446464 0 29.794304 8.024064 29.794304 17.954816C956.132352 33.285888 954.543104 36.383488 951.84384 39.164672L951.84384 39.164672zM185.933824 419.894016c-9.295872 1.429504-17.002496 5.243904-20.578304 10.645504L70.729728 570.29504c-4.289536 6.27712-2.224128 13.666304 5.08416 18.671616 7.310336 5.243904 18.910208 7.38816 29.715456 5.799936l95.8976-14.459904c74.923008 99.233792 189.80864 157.233152 317.725696 157.233152 226.435072 0 403.769344-183.770112 403.769344-418.151424 0-23.358464-31.143936-42.1888-69.600256-42.1888-38.453248 0-69.598208 18.830336-69.598208 42.1888 0 196.641792-139.437056 333.853696-264.57088 333.853696-64.196608 0-129.983488-35.434496-179.64032-93.75232l49.975296-7.469056c10.884096-1.826816 19.306496-6.832128 21.927936-13.426688 2.542592-6.674432-1.271808-13.66528-9.85088-18.034688l-189.33248-97.010688c-5.402624-2.78016-12.235776-4.13184-19.147776-4.13184C190.621696 419.416832 188.237824 419.576576 185.933824 419.894016z"  horiz-adv-x="1024" />

    
    <glyph glyph-name="gouwu" unicode="&#58960;" d="M512.01 749.485c88.514 0 160.285-86.461 160.285-193.038l0-0.754 128.203 0L864.6-149.485l-705.2 0 64.123 705.179 128.224 0 0 0.754C351.746 663.024 423.496 749.485 512.01 749.485M516.013 303.73l-49.287-104.943-115.064-14.459 84.596-79.336-21.814-113.87 101.569 55.93 101.568-55.93-21.814 113.87 84.597 79.336-115.044 14.459L516.013 303.73zM661.461 486.625c-6.768-21.039-16.533-40.276-28.625-56.998 3.563-1.383 7.439-2.138 11.484-2.138 17.728 0 32.062 14.354 32.062 32.061C676.382 470.951 670.43 480.946 661.461 486.625M391.979 428.538c-12.006 16.346-21.751 35.142-28.624 55.699-7.083-5.888-11.609-14.752-11.609-24.685 0-17.707 14.375-32.061 32.041-32.061C386.615 427.49 389.382 427.867 391.979 428.538M367.797 555.693l294.585 0c-0.606 99.012-66.343 179.081-147.271 179.081C434.141 734.774 368.406 654.706 367.797 555.693M383.787 491.613c-2.285 0-4.484-0.251-6.602-0.692 6.328-20.661 15.675-39.542 27.368-55.782 6.895 5.867 11.316 14.626 11.316 24.412C415.869 477.258 401.493 491.613 383.787 491.613M644.32 491.613c-17.687 0-32.062-14.354-32.062-32.062 0-10.394 4.944-19.593 12.615-25.481 11.965 16.387 21.521 35.457 27.996 56.391C650.146 491.193 647.296 491.613 644.32 491.613"  horiz-adv-x="1024" />

    
    <glyph glyph-name="27" unicode="&#983141;" d="M614.592-142.24 92.352-142.24c-12.992 0-23.36 11.072-22.592 24.128 2.88 51.584 13.696 172.032 52.8 227.584 58.944 83.968 253.632 54.976 308.224 130.176 6.016 8.32 7.104 30.336 7.04 47.488-0.064 6.4-2.752 12.544-7.552 16.832C383.68 345.824 352 419.168 351.296 489.824 349.824 628.448 370.176 743.712 513.664 743.712c139.008 0 160.448-114.112 160.448-251.648 0-72.128-31.936-145.92-78.656-187.968C590.784 299.872 588.032 293.856 587.968 287.52 587.648 270.432 588.416 247.968 594.56 239.584c5.504-7.36 12.224-13.696 20.096-19.392l0-22.656L511.424 197.536 456 197.536l0-55.36 0-125.76 0-55.424 55.424 0 103.168 0L614.592-142.24zM954.24 140.832l-158.4 0L795.84 299.36l-125.76 0 0-158.592-158.72 0 0-125.824 158.592 0 0-158.656 125.632 0 0 158.592 158.656 0L954.24 140.832z"  horiz-adv-x="1024" />

    
    <glyph glyph-name="icon" unicode="&#58914;" d="M904.740314-5.97674 763.656065 135.109556c-14.603603 14.603603-33.287127 22.61916-52.379974 24.088628 55.951313 62.495356 89.988524 145.020908 89.988524 235.507782 0 195.031928-158.103878 353.200274-353.166505 353.200274S94.899882 589.737894 94.899882 394.705965c0-195.062628 158.1356-353.199251 353.198228-353.199251 63.427588 0 122.940007 16.734126 174.386726 46.006823-3.352351-24.830525 4.494361-50.881854 23.568788-69.975724l141.114948-141.084249c32.477692-32.477692 85.092004-32.477692 117.570719 0C937.218006-91.100466 937.218006-38.454432 904.740314-5.97674zM448.099133 152.582509c-133.582391 0-241.897306 108.345614-241.897306 241.960751 0 133.61309 108.314914 241.897306 241.897306 241.897306 133.615137 0 241.961774-108.283192 241.961774-241.897306C690.060907 260.928123 581.71427 152.582509 448.099133 152.582509z"  horiz-adv-x="1024" />

    
    <glyph glyph-name="msnui-logout" unicode="&#58939;" d="M579.518 236.594h120.853v-185.179q0-32.164-9.746-56.041t-25.828-38.985-37.524-22.417-45.808-7.31h-430.784q-23.391 0-45.808 9.259t-39.472 25.828-27.777 38.985-10.721 49.707v672.492q0 23.391 11.208 44.833t28.751 38.011 38.985 26.802 42.884 10.234h427.861q25.34 0 47.757-11.208t39.472-28.265 26.802-38.497 9.746-41.909v-179.331h-120.853l0.975 186.154h-430.784l-0.975-679.315h430.784v186.154zM998.607 418.849q36.063-29.238 1.951-57.504-19.493-14.62-42.396-36.060t-47.757-44.345-49.219-45.321-44.833-38.985q-22.417-17.543-38.497-17.543t-16.081 23.391q1.951 13.644 0.487 34.112t-1.462 35.087q0 16.57-11.696 20.468t-28.265 3.899h-98.438q-33.137 0-69.685 0.487t-69.685 0.487h-99.412q-7.797 0-17.055 1.462t-16.57 6.335-11.696 13.644-4.386 22.417q0 18.518-0.487 43.858t0.487 44.833q0 26.315 12.671 36.060t40.934 8.772h88.692q31.188 0 66.762-0.487t67.737-0.487h95.513q24.367-0.975 41.422 3.899t17.057 21.441q0 13.644 0.975 30.7t0.975 30.7q0 22.417 12.183 28.265t30.7-8.772q18.518-15.594 43.371-36.548t50.193-42.884 50.193-43.371 45.321-38.011z"  horiz-adv-x="1042" />

    
    <glyph glyph-name="chanpinzhongxin" unicode="&#59224;" d="M758.87-201.484l361.696 362.326c0 0 32.714 27.787 32.71 67.622 0 60.188 0 222.993 0 222.993l-44.032-25.163v-120.145c0 0 2.423-41.403-49.065-89.008-47.178-46.234-359.924-359.495-359.924-359.495l58.614-59.131zM861.006 465.117c0 0 72.006 312.322 215.131 316.765 141.466 4.39 171.776-103.617 168.163-171.457-4.303-80.838-84.103-141.485-135.055-150.921 0 40.679 0.229 57.194 0.229 57.194s83.342 22.324 83.663 95.614c0.246 56.644-31.139 130.194-117.002 120.777-101.344-11.118-173.614-296.277-173.614-296.277l-15.098-15.098-26.419 43.404zM1010.389 626.96h39.728c0 0 0-260.421 0-309.487 0.953-26.305-30.193-58.5-30.193-58.5l-460.455-456.683-335.907 339.681c0 0 409.503 407.616 454.795 452.908 32.081 32.081 52.839 32.081 52.839 32.081h240.193l-54.958-139.015 5.891-26.927c2.304-10.531 1.446-28.599 1.446-28.599-5.6-23.172-26.46-40.387-51.353-40.387-29.184 0-54.1 24.916-54.1 54.1 0 14.907 16.566 45.712 41.921 50.832l15.534 50.868c-67.939-13.84-104.006-57.329-104.006-102.959 0-56.051 45.439-101.49 101.49-101.49 56.051 0 101.49 45.439 101.49 101.49-1.259 19.921-3.145 23.695-9.835 44.263-5.473 18.121 27.278 96.43 27.278 96.43z"  horiz-adv-x="1628" />

    
    <glyph glyph-name="iconjia" unicode="&#58911;" d="M902.947 228.973h-332.293v-332.346c0-32.387-26.267-58.628-58.655-58.628-32.387 0-58.654 26.241-58.654 58.628v332.346h-332.295c-32.414 0-58.654 26.241-58.654 58.628 0 32.375 26.243 58.628 58.654 58.628h332.293v332.346c0 32.375 26.267 58.628 58.654 58.628 32.388 0 58.655-26.254 58.655-58.628v-332.347h332.293c32.414 0 58.655-26.252 58.655-58.626-0.001-32.387-26.241-58.626-58.655-58.626z"  horiz-adv-x="1024" />

    
    <glyph glyph-name="1" unicode="&#58890;" d="M686.272 721.888 686.272 721.888c8.256 0 23.488-1.344 33.28-10.496 2.24-2.112 9.024-8.32 9.024-23.872 0-17.408-9.408-44.736-36.032-69.568C660.032 587.808 606.528 564.96 568 564.96c-11.136 0-16.384 1.984-17.344 1.984 0 0 0 0 0 0C543.552 581.472 559.04 644.448 603.968 686.368 627.904 708.576 658.624 721.888 686.272 721.888M686.272 795.68c-44.544 0-93.504-19.008-132.608-55.36-67.072-62.656-106.24-177.984-54.08-226.688 16.832-15.68 41.088-22.464 68.416-22.464 57.664 0 129.28 30.4 174.848 72.832 67.136 62.592 79.232 152.768 27.008 201.408C748.032 785.824 718.336 795.68 686.272 795.68M309.312 721.888c27.52 0 58.368-13.312 82.24-35.584 45.248-42.176 60.736-105.792 54.4-118.4-0.064 0-4.864-3.008-18.432-3.008-38.528 0-92.032 22.848-124.544 53.056C276.544 642.784 267.072 670.176 267.072 687.648c0 15.488 6.72 21.76 8.96 23.808C285.76 720.544 301.056 721.888 309.312 721.888M309.312 795.68c-32.128 0-61.76-9.856-83.648-30.208C173.44 716.768 185.6 626.592 252.736 564 298.304 521.568 369.92 491.168 427.584 491.168c27.392 0 51.648 6.784 68.416 22.464C548.16 562.336 509.056 677.728 441.856 740.32 402.816 776.672 353.792 795.68 309.312 795.68M931.584 201.952 931.584 455.008c0 39.744-32.512 72.32-72.256 72.32L533.952 527.328l0-325.44L931.584 201.888zM533.952 129.696l0-325.376 325.376 0c39.744 0 72.256 32.576 72.256 72.32l0 253.056L533.952 129.696zM461.632 201.952 461.632 527.392 136.32 527.392C96.512 527.392 64 494.752 64 455.008l0-253.12L461.632 201.888zM64 129.696l0-253.056c0-39.808 32.512-72.32 72.32-72.32l325.312 0 0 325.376L64 129.696z"  horiz-adv-x="1024" />

    
    <glyph glyph-name="tuichu" unicode="&#59024;" d="M480 748C214.912 748 0 533.088 0 268 0 2.912 214.912-212 480-212c265.088 0 480 214.912 480 480C960 533.088 745.088 748 480 748zM448 524C448 541.664 462.336 556 480 556S512 541.664 512 524l0-192C512 314.336 497.664 300 480 300S448 314.336 448 332L448 524zM480-20c-141.376 0-256 114.624-256 256 0 107.392 66.24 198.976 160 236.992l0-71.68C326.848 367.968 288 306.72 288 236c0-105.856 86.144-192 192-192s192 86.144 192 192c0 70.72-38.848 132.032-96 165.312l0 71.68C669.76 434.976 736 343.392 736 236 736 94.624 621.376-20 480-20z"  horiz-adv-x="1024" />

    
    <glyph glyph-name="guanyuwomen" unicode="&#58885;" d="M511.688426 713.277471c-226.228358 0-409.59842-161.732634-409.59842-361.222111 0-113.906095 59.929365-215.383115 153.364175-281.559755-4.183665-13.436045-9.142877-26.489396-15.265975-38.482719-45.829533-89.586425-138.0982-137.506662-138.0982-137.506662s110.116412-7.172965 228.772875 37.037741c45.227835 16.811425 91.619555 39.253751 133.697788 61.842833 15.478206-1.538677 31.175417-2.553548 47.127756-2.553548 226.2261 0 409.601806 161.733763 409.601806 361.220982C921.289104 551.544837 737.914526 713.277471 511.688426 713.277471"  horiz-adv-x="1024" />

    
    <glyph glyph-name="fuwuzhongxin" unicode="&#58906;" d="M495.01 678C274.092 678 95 498.918 95 277.961 95 57.102 274.092-122 495.01-122 715.918-122 895 57.102 895 277.961 895 498.918 715.918 678 495.01 678zM652.822 130.988c-16.182-12.949-36.649-25.234-62.489-35.685 1.483-13.867-5.527-27.733-18.496-34.043-16.328-7.969-35.82-0.84-43.486 15.938-7.754 16.776-0.742 36.776 15.519 44.668 14.032 6.797 30.293 2.479 39.53-9.396 23.203 9.375 41.603 20.176 56.222 31.543l0 203.81c-28.652 65.84-81.396 103.691-145.605 103.691-62.813 0-114.57-39.531-143.623-102.773l0-219.648C286.67 129.094 235 176.555 235 241.984c0 47.401 27.08 88.241 66.201 107.246C335.039 439.816 405.937 498 494.014 498c85.021 0 158.037-61.055 189.18-148.008C725.283 332.395 755 290.598 755 241.027 755 180.187 710.342 137.707 652.822 130.988z"  horiz-adv-x="1024" />

    
    <glyph glyph-name="xianshi" unicode="&#58883;" d="M504.764714 748.444499c-247.670799 0-448.443475-200.76449-448.443475-448.443475 0-247.663636 200.772676-448.444499 448.443475-448.444499 247.663636 0 448.444499 200.780863 448.444499 448.444499C953.209212 547.680009 752.42835 748.444499 504.764714 748.444499zM802.369785 242.925097 476.227774 242.925097l0 362.833679 73.382311 0 0-294.084898 252.759701 0L802.369785 242.925097z"  horiz-adv-x="1024" />

    
    <glyph glyph-name="demo26" unicode="&#58909;" d="M771.456 310.176c-37.312 7.296-19.136 27.392-19.136 27.392s36.544 60.352-7.232 104.256c-54.272 54.4-186.048-6.912-186.048-6.912C508.672 419.296 521.984 442.08 529.152 480.928c0 45.76-15.616 123.136-149.76 77.44C245.44 512.352 130.368 351.328 130.368 351.328c-80-107.008-69.376-189.76-69.376-189.76 19.968-182.592 213.504-232.768 364.032-244.608 158.336-12.48 372.096 54.72 436.928 192.768C926.72 247.968 808.96 302.688 771.456 310.176L771.456 310.176zM436.736-31.584c-157.248-7.36-284.352 71.68-284.352 176.832 0 105.28 127.104 189.76 284.352 196.992 157.312 7.296 284.608-57.728 284.608-162.816C721.344 74.336 594.048-24.416 436.736-31.584L436.736-31.584zM405.376 272.928c-158.08-18.56-139.84-167.04-139.84-167.04s-1.6-47.04 42.432-70.976c92.48-50.24 187.776-19.84 235.904 42.496C591.936 139.744 563.712 291.36 405.376 272.928L405.376 272.928zM365.44 64.544c-29.504-3.456-53.312 13.568-53.312 38.336 0 24.64 21.12 50.496 50.688 53.568 33.92 3.264 56-16.384 56-41.152C418.816 90.72 394.88 67.872 365.44 64.544L365.44 64.544zM458.688 144.16c-9.984-7.488-22.272-6.464-27.584 2.56C425.6 155.424 427.648 169.504 437.76 176.864c11.712 8.768 23.872 6.208 29.184-2.56C472.256 165.344 468.48 151.904 458.688 144.16L458.688 144.16zM848.512 374.432c12.736 0 23.616 9.472 25.408 21.76 0.256 0.896 0.32 1.728 0.32 2.752 19.328 174.08-142.272 144.128-142.272 144.128-14.336 0-25.856-11.648-25.856-26.176 0-14.272 11.456-25.92 25.856-25.92 116.096 25.664 90.496-90.688 90.496-90.688C822.4 386.016 834.048 374.432 848.512 374.432L848.512 374.432zM829.632 678.304c-55.872 13.12-113.344 1.792-129.408-1.28-1.216-0.128-2.432-1.28-3.584-1.536-0.576-0.128-0.896-0.704-0.896-0.704-15.872-4.48-27.52-19.2-27.52-36.608 0-20.736 16.768-37.824 37.696-37.824 0 0 20.288 2.752 34.112 8.128 13.696 5.504 129.344 4.096 186.88-92.672 31.36-70.592 13.76-117.888 11.584-125.504 0 0-7.488-18.368-7.488-36.416 0-20.864 16.768-33.984 37.504-33.984 17.408 0 31.936 2.368 36.224 31.808l0.256 0C1066.816 558.048 929.6 654.944 829.632 678.304L829.632 678.304zM829.632 678.304"  horiz-adv-x="1024" />

    
    <glyph glyph-name="tuichu1" unicode="&#58912;" d="M892.018571 407.894336c-20.781302 49.129954-50.523697 93.247754-88.404446 131.128503-37.880749 37.879726-81.998549 67.623144-131.128503 88.403422-12.281721 5.194302-24.75173 9.754155-37.379329 13.707187-0.177032-18.057261-0.425695-36.114522 0.164752-54.152341 138.699945-50.53393 238.012835-183.720302 238.012835-339.679329 0-199.271486-162.120354-361.390817-361.39184-361.390817-199.270463 0-361.389794 162.119331-361.389794 361.390817 0 155.037029 98.141204 287.566438 235.554854 338.771657l0 54.229089c-11.733229-3.758604-23.326265-8.04114-34.757618-12.876262-49.129954-20.780279-93.247754-50.523697-131.12748-88.404446-37.880749-37.879726-67.623144-81.997526-88.404446-131.12748-21.519106-50.878784-32.43062-104.910375-32.43062-160.593582s10.911514-109.714797 32.43062-160.593582c20.780279-49.130977 50.523697-93.247754 88.404446-131.128503 37.879726-37.880749 81.997526-67.624167 131.12748-88.404446 50.877761-21.519106 104.909351-32.43062 160.592558-32.43062s109.715821 10.911514 160.594605 32.43062c49.129954 20.780279 93.247754 50.523697 131.128503 88.404446 37.880749 37.879726 67.623144 81.997526 88.404446 131.128503 21.519106 50.878784 32.43062 104.910375 32.43062 160.593582S913.537677 357.016575 892.018571 407.894336zM481.193879 747.240067l61.398372 0 0-447.240067-61.398372 0 0 447.240067Z"  horiz-adv-x="1024" />

    
    <glyph glyph-name="huidingbu" unicode="&#58884;" d="M825.568 256.672l-287.392 289.28C531.808 552.352 523.488 555.424 515.2 555.36 514.08 555.456 513.12 556 512 556c-4.672 0-9.024-1.088-13.024-2.88-4.032-1.536-7.872-3.872-11.136-7.136l-259.328-258.88c-12.512-12.48-12.544-32.736-0.032-45.248 6.24-6.272 14.432-9.408 22.656-9.408 8.192 0 16.352 3.136 22.624 9.344L480 447.712 480-116c0-17.696 14.336-32 32-32s32 14.304 32 32L544 449.28l236.192-237.728c6.24-6.272 14.496-9.44 22.688-9.44s16.32 3.104 22.56 9.312C838.016 223.872 838.048 244.16 825.568 256.672zM864 620 160 620C142.336 620 128 634.336 128 652s14.336 32 32 32l704 0c17.696 0 32-14.336 32-32S881.696 620 864 620z"  horiz-adv-x="1024" />

    
    <glyph glyph-name="guanyuwomen1" unicode="&#58969;" d="M920.265696 357.21988l-88.312242-88.343273c-9.060848-9.091879-20.976485-13.653333-32.892121-13.653333-11.915636 0-23.831273 4.530424-32.923152 13.653333-8.874667 8.874667-13.436121 20.417939-13.653333 32.054303-0.217212 12.163879 4.344242 24.451879 13.653333 33.76097l88.312242 88.312242C883.743029 452.358789 899.878787 491.301819 899.878787 532.758304 899.878787 618.277819 830.277817 687.878788 744.727272 687.878788c-41.425455 0-80.399515-16.135758-109.692121-45.459394l-186.181817-186.181817C419.529697 426.944971 403.393939 388.032971 403.393939 346.576486c0-52.999758 26.779152-101.841455 71.68-130.637576 10.829576-6.888727 17.780364-17.563152 20.324848-29.199515 2.575515-11.636364 0.651636-24.234667-6.268121-35.095273-6.919758-10.767515-17.532121-17.749333-29.106424-20.293818-11.698424-2.606545-24.358788-0.713697-35.219394 6.237091-71.71103 46.017939-114.532848 124.121212-114.532848 208.98909 0 66.311758 25.817212 128.651636 72.704 175.507393l186.181817 186.150787C616.075636 755.152485 678.415515 780.969697 744.727272 780.969697c136.874667 0 248.242423-111.367758 248.242423-248.211393C992.969696 466.446546 967.152484 404.075637 920.265696 357.21988zM248.242425-118.909088c41.425455 0 80.399515 16.135758 109.692121 45.459394l186.181817 186.181817C573.44 142.024729 589.575758 180.96776 589.575758 222.424244c0 52.999758-26.779152 101.841455-71.68 130.606545-10.829576 6.950788-17.780364 17.594182-20.324848 29.230545-2.575515 11.636364-0.651636 24.234667 6.268121 35.064242 6.919758 10.767515 17.532121 17.749333 29.106424 20.324848 11.698424 2.575515 24.358788 0.713697 35.219394-6.268121 71.71103-45.986909 114.501818-124.121212 114.501818-208.98909 0-66.311758-25.817212-128.651636-72.704-175.507393l-186.181817-186.181817C376.894061-186.182785 314.554183-211.999997 248.242425-211.999997c-136.874667 0-248.242423 111.367758-248.242423 248.242423 0 66.311758 25.817212 128.682667 72.704 175.507393l88.312242 88.343273c9.060848 9.091879 20.976485 13.622303 32.892121 13.622303 11.915636 0 23.831273-4.530424 32.892121-13.622303 8.874667-8.874667 13.436121-20.44897 13.653333-32.054303 0.217212-12.194909-4.344242-24.451879-13.653333-33.76097l-88.312242-88.343273C109.226668 116.641941 93.09091 77.698911 93.09091 36.242426 93.09091-49.308118 162.69188-118.909088 248.242425-118.909088z"  horiz-adv-x="1024" />

    
    <glyph glyph-name="group" unicode="&#58886;" d="M0 812l422.956522 0 0-66.782609-422.956522 0 0 66.782609ZM66.782609 812l0-422.956522-66.782609 0 0 422.956522 66.782609 0ZM422.956522 812l0-422.956522-66.782609 0 0 422.956522 66.782609 0ZM0 455.826087l422.956522 0 0-66.782609-422.956522 0 0 66.782609ZM601.043478 812l422.956522 0 0-66.782609-422.956522 0 0 66.782609ZM667.826087 812l0-422.956522-66.782609 0 0 422.956522 66.782609 0ZM1024 812l0-422.956522-66.782609 0 0 422.956522 66.782609 0ZM601.043478 455.826087l422.956522 0 0-66.782609-422.956522 0 0 66.782609ZM0 210.956522l422.956522 0 0-66.782609-422.956522 0 0 66.782609ZM66.782609 210.956522l0-422.956522-66.782609 0 0 422.956522 66.782609 0ZM422.956522 210.956522l0-422.956522-66.782609 0 0 422.956522 66.782609 0ZM0-145.217391l422.956522 0 0-66.782609-422.956522 0 0 66.782609ZM601.043478 210.956522l422.956522 0 0-66.782609-422.956522 0 0 66.782609ZM667.826087 210.956522l0-422.956522-66.782609 0 0 422.956522 66.782609 0ZM1024 210.956522l0-422.956522-66.782609 0 0 422.956522 66.782609 0ZM601.043478-145.217391l422.956522 0 0-66.782609-422.956522 0 0 66.782609Z"  horiz-adv-x="1024" />

    
    <glyph glyph-name="tuichu2" unicode="&#58891;" d="M422.236604 674.513696l-154.905022-29.256324L267.331581-6.371736l154.905022-29.256324 0-72.855308L175.97285-108.483368 175.97285 747.367981l246.263753 0L422.236604 674.513696zM598.22685 656.039949l0-215.103056-87.912236 0L510.314615 196.027997l87.912236 0 0-213.029838 342.320483 334.354044L598.22685 656.039949zM359.305319 440.936893 359.305319 196.027997l31.975249 0L391.280568 440.936893 359.305319 440.936893zM419.046958 440.936893 419.046958 196.027997l61.145615 0L480.192573 440.936893 419.046958 440.936893z"  horiz-adv-x="1024" />

    
    <glyph glyph-name="shuaxin" unicode="&#58892;" d="M511.582491 748.586738C265.134543 748.586738 64.62588 548.078075 64.62588 301.630127s200.508663-446.957635 446.957635-446.957635 446.957635 200.508663 446.957635 446.957635S758.031463 748.586738 511.582491 748.586738zM509.001713 60.140097c-98.517781 0-182.467775 62.623269-214.771505 150.056598l0.327458 0.134053c-2.007727 4.036943-3.38305 8.422833-3.38305 13.237489 0 16.647145 13.494339 30.142507 30.142507 30.142507 13.389962 0 24.358781-8.877181 28.2893-20.955264l0.422625 0.172939c23.269983-65.442478 85.645612-112.503307 158.972665-112.503307 93.106538 0 168.845523 75.738985 168.845523 168.845523s-75.738985 168.845523-168.845523 168.845523c-20.432355 0-39.874149-3.980661-58.013275-10.66899l21.248953-40.742936c2.486634-2.677992 4.0175-6.2831 4.0175-10.243295 0-8.417717-8.404414-14.921851-15.365966-15.07023-0.102331 0-0.206708 0-0.309038 0-0.220011 0-0.427742 0-0.647753 0.013303l-150.579507 6.463202c-5.372358 0.234337-10.229992 3.310396-12.716626 8.093329-2.486634 4.76963-2.236947 10.509355 0.647753 15.055904l80.890308 127.179564c2.8847 4.533246 8.006348 7.151887 13.365402 6.960529 5.372358-0.234337 10.227945-3.312442 12.71458-8.095375l18.580171-35.625382c26.629497 10.855232 55.683207 16.963347 86.168522 16.963347 126.338407 0 229.130537-102.791108 229.130537-229.130537S635.340119 60.140097 509.001713 60.140097z"  horiz-adv-x="1024" />

    
    <glyph glyph-name="fuwuzhongxinzhanghuanquan" unicode="&#59156;" d="M511.998465 485.163438c-36.934154 0-80.059304-20.983896-80.059304-80.06749 0-11.696378 0.249686-22.267121 0.72757-32.024335l158.664491 0c0.477884 9.757215 0.72757 20.327957 0.72757 32.024335C592.058792 464.179542 548.932619 485.163438 511.998465 485.163438zM511.998465 661.293702c-167.750417 0-304.226582-136.475141-304.226582-304.233745 0-167.750417 136.476165-304.226582 304.226582-304.226582s304.226582 136.476165 304.226582 304.226582C816.225047 524.81856 679.748883 661.293702 511.998465 661.293702zM672.118096 196.940326c0-8.849543-7.170299-16.011656-16.011656-16.011656l-288.213903 0c-8.843403 0-16.011656 7.162113-16.011656 16.011656l0 160.119631c0 8.849543 7.169276 16.010633 16.011656 16.010633l16.61336 0c-0.469697 10.664887-0.601703 21.391171-0.601703 32.024335 0 84.008238 61.780003 128.103482 128.095295 128.103482s128.095295-44.095243 128.095295-128.103482c0-10.633164-0.13303-21.359449-0.601703-32.024335l16.61336 0c8.84238 0 16.011656-7.16109 16.011656-16.010633L672.118096 196.940326zM511.998465 757.365685c-221.07792 0-400.298565-179.227808-400.298565-400.304705 0-221.070757 179.220645-400.298565 400.298565-400.298565s400.297542 179.227808 400.297542 400.298565C912.296007 578.137876 733.076385 757.365685 511.998465 757.365685zM511.998465 20.810062c-185.7084 0-336.249894 150.548657-336.249894 336.249894 0 185.7084 150.541494 336.258081 336.249894 336.258081s336.249894-150.549681 336.249894-336.258081C848.248359 171.358719 697.706865 20.810062 511.998465 20.810062z"  horiz-adv-x="1024" />

    
    <glyph glyph-name="shoucangjia1" unicode="&#58899;" d="M950.604386 268.566968c0 30.375821-10.444886 53.53938-30.870078 67.000973 12.393261 7.020904 30.648021 41.72224 30.648021 72.370261-1.231037 50.635237-50.218752 88.166015-124.184347 88.166015L630.085442 496.104217c33.580816 91.402733 27.245528 214.655871-14.858406 280.444227-25.356504 39.59581-55.81419 48.467875-76.95058 48.467875-71.164806 0-73.494874-68.555375-73.494874-91.88778 0-78.021981-11.268648-113.579825-25.303292-146.367579-11.130502-21.215184-79.253018-91.013877-148.854213-91.013877L160.189376 495.747083c-50.359968 0-86.875626-42.164309-86.793762-102.176101l33.827433-356.956831c4.088108-54.996568 31.090089-88.301092 85.258803-88.301092 0 0 26.973328-0.222057 47.179532-0.222057 10.30674 0 19.927865 0.088004 25.629727 0.222057 16.694217 0.548492 30.456662 11.239995 42.627866 20.228717 8.609075 6.337335 15.435551 11.850909 21.63167 11.850909 2.765997 0 18.583241-9.081843 37.994336-17.330714 19.792788-8.364505 51.18066-15.297404 81.198324-15.297404l272.79092 0c91.455945 0 135.36806 34.269501 135.36806 91.39557 0 16.894785-3.89061 26.898627-13.264095 39.974433 36.703947 8.794293 69.269643 31.879058 69.269643 71.681576 0 14.783705-6.957459 38.524408-16.47216 44.826951C914.38958 200.225463 950.660668 232.245737 950.604386 268.566968L950.604386 268.566968zM263.946484-15.714657c-16.337083-0.51677-74.945923 0-75.330686 0-21.026896 0-39.667441 19.818371-44.410466 46.437635L110.3779 401.801435c0 27.76946 22.339798 58.20054 52.167127 58.20054l0-0.194428 128.078027-0.385786c2.192945 0 4.357238 0.272199 6.525624 0.357134l0-453.950909c-5.92392-4.13518-11.460006-8.139378-15.409968-11.05273C276.312116-9.223826 267.239484-15.336034 263.946484-15.714657L263.946484-15.714657zM862.084307 219.933317l-4.958942 0 0.463558-33.116235c3.978614-1.503237 18.643616-5.92085 18.668175-34.7085 0-30.833239-40.516786-43.23264-74.645071-43.23264l0.084934 0-0.579191-31.550577c13.900591-3.095501 18.887163-15.244192 18.862603-34.655288 0-33.93488-27.578102-58.385758-99.212606-58.385758L438.267718-15.715681c-13.511735 0-40.954761 7.866155-56.768935 15.516392-14.911618 7.205099-38.818097 20.695345-47.070039 25.166169L334.428745 465.788771c71.02973 19.680225 129.666198 80.948637 144.468322 109.243053 16.093537 37.418214 24.15412 76.534094 24.15412 162.344458 0 42.627866 15.651468 48.357358 32.318056 48.357358 14.748912 0 38.185694-16.256242 50.030463-34.786271 35.062564-54.745858 43.2572-172.685991-0.357134-261.011642l-7.509021-30.570249 250.369258 0.056282c42.627866-2.328022 85.47472-19.762089 85.47472-51.208289l-0.303922-9.843182c0.141216-0.410346-1.039679-27.242458-15.322987-39.09132-11.982916-9.949606-21.684882-10.288321-21.684882-10.288321l-0.272199-32.587186c0 0 14.44806-1.945305 21.985734-7.124258 11.347442-7.791453 16.500812-22.537296 15.899108-38.655392C912.939555 250.228297 881.410468 219.933317 862.084307 219.933317L862.084307 219.933317zM862.084307 219.933317"  horiz-adv-x="1024" />

    
    <glyph glyph-name="shoucangjia2" unicode="&#58907;" d="M511.943718-33.47823l-13.754259 13.768585c-20.927635 20.950148-40.264029 35.745109-78.786391 65.220421-23.686469 18.123776-53.165874 40.679491-94.143147 73.144904l-0.505513 0.401136C218.693838 203.065138 73.439616 318.119547 73.439616 481.886401c0 73.870428 27.635407 142.509714 77.816297 193.272865 47.478338 48.0299 111.399159 75.575256 175.370123 75.575256 71.65497 0 136.596028-33.272801 185.318706-94.321202 48.765657 61.099566 113.795742 94.402043 185.567369 94.402043 63.87682 0 127.728056-27.406187 175.183881-75.18947 50.14712-50.495044 77.764108-118.703519 77.764108-192.060247 0-39.071877-8.355295-78.147848-24.835641-116.142184-14.245446-32.845059-35.080983-65.988924-61.930491-98.513688-47.252187-57.241702-107.383706-106.142435-165.325349-150.457734-20.164249-15.428388-37.554314-28.66997-52.897767-40.352033-68.924789-52.479235-92.14463-70.158896-119.773897-97.810676L511.943718-33.47823zM326.626036 711.848886c-53.651944 0-107.492176-23.337521-147.716296-64.027246-42.937928-43.436278-66.585511-102.366436-66.585511-165.93524 0-63.723324 25.549909-125.235282 78.111009-188.050933 46.598294-55.69037 106.028848-102.764502 158.463058-144.29743l0.50756-0.402159c40.721447-32.261775 70.056566-54.706973 93.627401-72.742744 30.791284-23.559579 50.560536-38.687114 68.838831-55.390541 24.842805 23.164582 52.1528 43.957141 110.044302 88.035032 15.326057 11.668761 32.69668 24.894993 52.827159 40.298821 52.268434 39.97648 111.966071 87.393419 158.964478 144.32813 52.396347 63.473637 77.867462 125.591393 77.867462 189.901071 0 63.020312-23.605627 121.497145-66.469877 164.658154-40.206724 40.485063-94.001931 63.704904-147.592476 63.704904-66.607 0-126.762055-35.254945-169.382758-99.270934l-16.183588-24.307615-16.183588 24.308639C453.175243 676.622594 393.109216 711.848886 326.626036 711.848886z"  horiz-adv-x="1024" />

    
    <glyph glyph-name="dianhua" unicode="&#58942;" d="M81.275072 136.649496c0-160.76959 73.698512-160.441109 429.574732-160.441109 355.852684 0 429.553243-0.327458 429.553243 160.441109 0 175.470407-192.32119 525.560854-429.553243 525.560854C273.601378 662.210349 81.275072 312.119903 81.275072 136.649496L81.275072 136.649496zM509.594207 586.967668c100.805894 0 182.513824-82.199117 182.513824-183.594435 0-101.406574-81.70793-183.589318-182.513824-183.589318-100.787474 0-182.501544 82.182744-182.501544 183.589318C327.092663 504.769574 408.806733 586.967668 509.594207 586.967668L509.594207 586.967668zM892.134717 451.824735C817.311591 572.310853 687.97285 700.859601 511.744173 700.859601c-176.174442 0-313.924759-139.115408-376.3536-247.971651-32.261775-54.019311-94.216825-48.300053-121.219829 0C-3.183506 489.030102-57.409524 791.791613 511.744173 791.791613c575.547315-0.771573 516.074805-312.818565 495.866554-338.903663C971.814454 398.146185 904.376529 426.053792 892.134717 451.824735L892.134717 451.824735zM892.134717 451.824735"  horiz-adv-x="1024" />

    
    <glyph glyph-name="camera" unicode="&#58894;" d="M512.034792-7.068743c-110.305245 0-220.609467-0.001023-330.914712 0.001023-57.640792 0.001023-106.656135 39.913035-118.02916 96.436376-1.532913 7.620561-2.230808 15.537881-2.237971 23.319102-0.130983 140.230812-0.352017 280.462646 0.033769 420.693458 0.145309 52.860928 26.448372 89.682555 73.476455 112.137986 14.588253 6.965645 30.496571 9.18315 46.638203 9.196453 33.373085 0.029676 66.747193 0.068562 100.120278-0.077771 3.807722-0.016373 5.714142 0.924045 7.094582 4.732791 7.040347 19.412119 14.356986 38.724976 21.721721 58.018392 12.803607 33.540907 48.010457 57.677631 83.949994 57.678654 78.968539 0.002047 157.936055 0.00614 236.904595 0.001023 35.192523-0.002047 71.03587-24.836665 83.435271-57.83829 7.208169-19.184945 14.482853-38.346353 21.415752-57.630558 1.427512-3.971451 3.342118-4.994758 7.408737-4.980431 35.250852 0.12689 70.518077 0.611937 105.751532-0.226151 36.513612-0.868787 65.712631-17.391089 88.597851-45.37135 18.196431-22.248723 25.951045-48.055482 25.927509-76.644611-0.112564-140.074246-0.064468-280.149515-0.037862-420.22376 0.011256-58.550511-44.169989-109.742427-102.08912-117.995391-5.868661-0.836041-11.855002-1.173732-17.787108-1.176802C732.955344-7.08614 622.494557-7.068743 512.034792-7.068743zM512.01535 113.213737c114.996081-1.659803 214.740806 97.731882 210.889081 218.120786-3.454682 107.990526-96.066963 201.324238-206.313879 203.600071-118.396527 2.443655-213.750245-96.708576-215.658711-206.606545C298.886251 210.498434 396.305001 111.683894 512.01535 113.213737zM512.200568 459.160817c73.862241 0.899486 135.834688-62.200644 135.423319-135.863341-0.408299-73.185836-62.282508-136.003534-136.957255-134.987391-73.887824 1.00591-134.245494 61.448514-134.011156 135.818315C376.892883 399.202237 437.21269 459.295893 512.200568 459.160817z"  horiz-adv-x="1024" />

    
    <glyph glyph-name="iconfontqq1" unicode="&#58964;" d="M910.858 223.278c-18.835 109.494-97.937 181.226-97.937 181.226 11.302 99.415-30.13 117.046-30.13 117.046-8.718 307.585-273.041 302.201-278.595 302.054-5.551 0.148-269.911 5.531-278.593-302.053 0 0-41.435-17.63-30.135-117.046 0 0-79.096-71.733-97.93-181.226 0 0-10.059-185.007 90.396-22.655 0 0 22.605-61.656 64.032-117.046 0 0-74.084-25.183-67.797-90.61 0 0-2.522-72.982 158.198-67.962 0 0 112.995 8.798 146.896 56.63l29.87 0c33.901-47.832 146.893-56.63 146.893-56.63 160.687-5.02 158.199 67.962 158.199 67.962 6.254 65.427-67.798 90.61-67.798 90.61 41.432 55.39 64.032 117.046 64.032 117.046 100.42-162.352 90.401 22.654 90.401 22.654z"  horiz-adv-x="1024" />

    
    <glyph glyph-name="tupian" unicode="&#58950;" d="M951.597176 746.224941 95.201882 746.224941c-18.100706 0-33.400471-15.691294-33.400471-33.822118l0-685.748706c0-18.100706 15.299765-33.400471 33.400471-33.400471l856.395294 0c18.130824 0 39.845647 15.299765 39.845647 33.400471L991.442824 712.402824C991.442824 731.346824 969.336471 746.224941 951.597176 746.224941zM871.213176 189.018353c-25.750588 82.130824-100.472471 218.744471-194.680471 218.744471-86.949647 0-167.484235-123.753412-203.294118-206.667294-20.540235 46.290824-80.504471 88.726588-149.353412 88.726588-88.154353 0-144.805647-61.349647-144.805647-126.976L179.079529 623.736471c0 18.100706 15.691294 33.400471 33.822118 33.400471l618.496 0c19.335529 0 39.845647-15.299765 39.845647-33.400471L871.243294 189.018353zM371.380706 566.663529c-49.513412 0-88.576-38.640941-88.576-88.154353 0-48.730353 39.062588-87.762824 88.576-87.762824 49.513412 0 88.154353 39.062588 88.154353 87.762824C459.535059 527.992471 420.864 566.663529 371.380706 566.663529z"  horiz-adv-x="1024" />

    
    <glyph glyph-name="xianshi1" unicode="&#59055;" d="M514.444167 382.722914M514.444167 382.722914M105.142154 77.823716M105.142154 719.436702M511.293407-62.895213c-60.21236 0-118.640074 11.799744-173.659155 35.07075-53.126988 22.470781-100.833523 54.633295-141.794423 95.594195-40.960901 40.959877-73.123414 88.666412-95.594195 141.7934-23.271006 55.020104-35.07075 113.446795-35.07075 173.658132 0 60.21236 11.799744 118.640074 35.07075 173.659155 22.470781 53.126988 54.633295 100.834546 95.594195 141.794423 40.960901 40.960901 88.667435 73.123414 141.794423 95.594195 55.019081 23.271006 113.446795 35.07075 173.659155 35.07075s118.640074-11.799744 173.659155-35.07075c53.126988-22.470781 100.834546-54.633295 141.794423-95.594195s73.123414-88.667435 95.594195-141.794423c23.271006-55.019081 35.07075-113.446795 35.07075-173.659155 0-60.211337-11.799744-118.639051-35.07075-173.658132-22.470781-53.126988-54.633295-100.833523-95.594195-141.7934-40.960901-40.960901-88.667435-73.123414-141.794423-95.594195C629.932458-51.095469 571.505767-62.895213 511.293407-62.895213zM511.293407 767.942439c-212.135468 0-384.720152-172.584684-384.720152-384.720152 0-212.135468 172.584684-384.719128 384.720152-384.719128s384.720152 172.58366 384.720152 384.719128C896.013559 595.357755 723.428875 767.942439 511.293407 767.942439zM766.741333 352.93447c-0.032746 0-0.064468 0-0.097214 0l-252.321726 0.784876c-16.900925 0.052189-30.580482 13.756305-30.604018 30.656207l-0.345877 251.460102c-0.023536 16.95516 13.70207 30.718629 30.656207 30.742165 0.013303 0 0.029676 0 0.042979 0 16.935718 0 30.674627-13.715373 30.698163-30.656207l0.303922-220.899062 221.759663-0.689708c16.954137-0.053212 30.656207-13.840216 30.604018-30.794353C797.385261 366.616074 783.650445 352.93447 766.741333 352.93447z"  horiz-adv-x="1024" />

    
    <glyph glyph-name="shouye" unicode="&#58893;" d="M556.571636 829.75218l-89.143273 0L66.257541 406.298865c0 0 0.787946-89.149413 44.577265-89.149413l66.859757 0 0-289.753243c0-87.320765 89.148389-89.149413 89.148389-89.149413l178.295755 0L445.138708 250.289696c0 22.326495 22.288632 22.284539 22.288632 22.284539l89.147366 0c0 0 22.288632-0.73985 22.288632-22.284539l0-312.042899 178.295755 0c91.541903 0 89.148389 89.149413 89.148389 89.149413L846.307484 339.439108l66.86078 0c43.181475 0 44.572148 66.855664 44.572148 66.855664L556.571636 829.75218 556.571636 829.75218zM556.571636 829.75218"  horiz-adv-x="1024" />

    
    <glyph glyph-name="tuichu3" unicode="&#59037;" d="M978.016713 390.229888c0-15.530718-6.764054-29.473265-17.412578-39.119973l0 0L785.351692 193.036737l0 0c-9.354042-8.353248-21.649066-13.471826-35.17922-13.471826-29.061896 0-52.592822 23.530926-52.592822 52.652174 0 15.530718 6.706749 29.531594 17.412578 39.179324l0 0 73.41915 66.182328L409.613098 337.578738l0 0c-29.002544 0-52.592822 23.590278-52.592822 52.651151 0 29.121248 23.590278 52.711526 52.592822 52.711526l0 0 378.799302 0-73.41915 66.182328 0 0c-10.705829 9.648754-17.412578 23.590278-17.412578 39.180348 0 29.061896 23.529903 52.652174 52.592822 52.652174 13.530155 0 25.825179-5.118578 35.17922-13.531178l0 0 175.252443-158.01485 0 0C971.251635 419.762505 978.016713 405.819958 978.016713 390.229888L978.016713 390.229888zM512.26913 681.198819 181.768857 681.198819l0-581.935816 330.500273 0c29.060873 0 52.592822-23.590278 52.592822-52.651151 0-29.120224-23.530926-52.711526-52.592822-52.711526L129.175011-6.099672c-29.061896 0-52.592822 23.591301-52.592822 52.711526L76.582189 733.909321c0 29.121248 23.530926 52.710502 52.592822 52.710502l383.094118 0c29.060873 0 52.592822-23.590278 52.592822-52.710502C564.861952 704.847425 541.330002 681.198819 512.26913 681.198819L512.26913 681.198819zM512.26913 681.198819"  horiz-adv-x="1024" />

    
    <glyph glyph-name="about" unicode="&#58895;" d="M930.804 117.348c2.338-7.689 4.010-17.383 5.347-28.747 1.339-11.031 2.007-22.732 2.007-34.096 0-11.365-0.668-22.397-2.676-32.426-1.669-10.027-4.345-17.717-7.688-22.73-2.34-3.344-8.692-6.686-19.723-10.029-11.031-3.343-24.736-6.35-40.781-9.025-16.38-3.008-34.431-5.349-54.152-8.022s-39.444-4.681-59.5-6.353c-20.057-1.67-39.112-3.007-57.831-4.345-18.385-1.002-34.765-1.67-48.804-1.67-14.040 0-30.084 0.668-48.47 1.67-18.053 1.339-37.104 2.675-56.826 4.345-19.724 1.672-39.112 3.679-58.165 5.35-19.054 2.005-36.771 4.346-52.815 6.686-16.045 2.675-29.417 5.016-40.448 7.688-11.031 2.675-17.716 5.015-20.725 7.354-4.345 4.012-8.021 15.712-11.031 35.434-2.675 19.723-2.005 45.127 2.674 75.881 2.675 18.051 10.029 31.422 21.393 40.446 11.368 9.026 25.072 16.38 40.783 22.062 15.709 5.684 31.756 10.363 48.469 14.709 16.714 4.347 31.423 10.364 44.125 19.055 10.028 6.685 17.716 13.036 23.064 18.385 5.349 5.684 9.025 11.366 11.7 16.714 2.674 5.683 3.678 11.698 3.678 17.717 0 6.017-0.335 13.036-1.005 21.060-1.338 11.030-5.015 20.056-11.699 26.742-6.686 6.35-14.040 12.701-22.062 19.053-4.011 3.344-7.354 8.022-10.363 14.374-3.009 6.017-5.682 12.367-8.022 18.386-2.34 6.685-4.346 14.372-6.686 22.729-3.344 1.338-6.686 3.009-10.029 5.015-3.008 2.339-5.682 5.683-8.69 10.028-3.342 4.345-6.018 10.697-8.691 18.385-3.008 7.689-4.012 15.377-3.343 22.397 0.668 7.020 2.005 12.702 4.347 17.382 2.338 5.682 5.347 10.697 9.024 15.043-0.333 18.050 0.335 36.436 2.675 54.821 2.339 15.711 5.682 32.090 10.363 49.472 4.68 17.049 12.034 33.094 22.396 47.802 9.025 13.371 19.054 24.402 30.419 32.759 11.031 8.358 22.73 15.043 34.429 19.724 11.702 4.679 23.733 8.022 35.436 9.694 11.698 1.67 23.063 2.673 33.76 2.673 28.748 0 54.152-6.017 76.884-17.716 22.397-11.7 39.11-24.402 49.808-37.773 12.367-15.377 21.394-32.090 27.411-51.145 6.017-18.719 10.026-36.437 13.035-52.481 3.008-19.054 4.013-38.107 3.345-57.16 2.673-2.34 5.349-5.349 7.688-9.026 1.671-3.343 3.342-7.689 4.679-13.037 1.337-5.348 1.674-12.033 0.335-19.722-1.337-10.029-3.343-18.384-6.687-24.402-3.343-6.017-6.686-11.031-10.027-14.375-4.012-4.011-8.356-6.35-13.37-7.688-2.341-8.356-4.348-16.045-6.687-22.73-2.34-6.018-5.015-12.367-8.357-18.385-3.343-6.017-7.021-10.697-10.697-13.371-4.345-4.012-8.69-7.354-12.367-10.028-3.677-3.009-6.685-5.683-9.694-8.691-3.009-3.009-5.348-6.686-7.020-10.363-2.006-4.011-3.678-8.69-4.679-14.374-1.003-7.354-1.672-14.707-1.337-22.396 0.334-7.688 2.005-15.043 5.348-22.062 3.343-7.354 8.689-14.375 16.379-21.061 7.688-6.685 18.052-12.702 31.757-17.716 11.7-5.015 24.736-9.359 39.11-13.036 14.374-3.678 28.079-8.024 41.448-13.037 13.371-5.014 25.073-11.7 35.436-19.389 10.36-10.032 17.713-20.061 22.395-32.428M481.203 272.452c-1.337-6.352-2.674-11.033-4.346-14.375-1.672-3.344-5.682-7.021-11.699-11.031-14.708-9.025-30.419-16.379-47.134-21.728-17.047-5.682-33.093-11.699-48.47-18.385-15.375-6.686-28.747-15.71-40.446-26.742-11.366-11.030-18.72-26.408-21.393-46.799-1.003-6.352-1.672-12.368-2.007-18.051-0.333-6.017-0.668-11.365-1.336-16.38-0.669-1.002-1.337-2.006-1.672-3.007-0.333-1.005-1.002-1.673-1.672-3.009-22.062 1.671-44.123 3.677-66.52 6.016-22.397 2.339-43.122 5.015-61.841 7.688-18.72 3.009-34.765 5.685-47.802 8.358-13.037 2.672-21.058 5.681-24.402 8.356-5.014 4.011-8.691 15.711-11.366 35.433-2.673 19.723-1.67 45.127 3.009 76.55 2.675 17.382 10.029 30.754 21.395 40.112 11.699 9.026 25.070 16.714 41.114 21.729 15.711 5.349 31.758 10.361 48.47 14.708 16.715 4.345 31.423 10.697 44.125 18.384 10.030 6.688 17.717 13.037 23.4 18.387 5.347 5.682 9.024 11.364 11.365 17.381 2.34 6.018 3.343 12.035 3.343 18.051 0 6.018-0.334 13.038-1.003 20.057-1.003 11.365-5.014 20.057-11.365 26.742-6.351 6.352-13.705 13.037-21.394 19.723-4.346 3.009-8.357 7.354-11.366 13.371-3.009 6.017-5.682 12.367-8.022 18.384-2.34 6.686-4.346 14.375-6.686 22.73-3.343 1.339-6.686 3.009-10.028 5.016-3.008 2.34-5.684 5.682-8.692 10.027-3.009 4.346-6.017 10.698-8.691 18.385-2.675 7.688-4.012 15.377-3.342 22.062 0.667 7.019 2.005 13.037 4.345 18.052 2.339 6.016 5.348 11.364 9.026 15.041-0.67 18.051 0.333 36.436 2.674 54.822 2.34 15.376 6.017 31.421 11.031 48.804 5.013 17.383 12.703 33.092 22.729 47.133 9.026 13.371 19.055 24.401 30.42 32.759 11.030 8.356 22.395 15.041 34.096 19.721 11.364 4.681 23.064 8.023 35.098 9.695 11.699 1.671 23.4 2.673 34.431 2.673 28.079 0 53.484-6.017 75.881-17.716s39.445-24.402 50.81-38.106c7.354-9.36 12.032-18.386 13.705-26.408 2.004-8.023 4.68-17.716 8.021-28.414-10.696-6.017-22.061-15.376-34.095-27.41-12.035-12.034-22.397-24.402-31.756-36.771-11.031-15.709-19.722-33.093-25.405-52.146-5.682-19.054-9.694-36.771-12.703-53.151-2.674-19.721-4.010-39.109-4.010-58.832-4.346-5.014-8.023-10.697-10.029-16.713-2.341-5.684-3.677-12.37-4.346-19.724-0.668-7.687 0.669-15.711 3.342-24.736 3.009-9.694 6.017-17.048 9.026-21.727 3.343-5.015 6.352-9.026 9.361-11.701 3.341-3.342 6.686-5.683 10.027-6.686 2.341-9.025 4.346-17.381 6.686-25.404 2.339-6.685 5.014-13.704 8.022-20.725 3.344-7.020 7.021-12.035 11.366-15.712 4.012-3.343 7.021-6.016 9.026-8.355 2.34-2.341 4.012-4.347 5.682-6.353 1.338-2.005 2.34-4.679 2.675-8.021-0.667-2.005 0-6.35 1.338-12.032z"  horiz-adv-x="1024" />

    
    <glyph glyph-name="shangchuan" unicode="&#58928;" d="M910.221821 99.555328 910.221821-14.222336 113.778171-14.222336 113.778171 99.555328 0.000507 99.555328 0.000507-14.222336 0.000507-128 1023.999485-128 1023.999485-14.222336 1023.999485 99.555328ZM227.555836 99.555328 796.444156 99.555328 796.444156 384 1022.790835 384 511.39516 896 0.000507 384 227.555836 384Z"  horiz-adv-x="1024" />

    
    <glyph glyph-name="news" unicode="&#58973;" d="M386.354 710.55c-81.245-30.448-148.485-89.186-190.021-164.134h133.435c14.847 75.917 37.482 129.613 56.586 164.134zM501.762 546.416v187.262c-28.478-0.914-55.975-5.461-82.43-12.564-20.171-33.739-46.292-90.41-62.768-174.698h145.198zM830.091 546.415c-40.869 73.739-106.065 132.156-185.497 163.030 18.979-34.541 41.288-87.922 55.985-163.030h129.512zM611.385 720.523c-26.513 7.429-54.215 11.946-82.78 13.199v-187.307h145.213c-16.379 83.817-42.308 140.296-62.433 174.108zM643.855 34.24c79.776 30.807 145.279 89.256 186.041 163.301h-129.475c-14.802-75.882-37.458-129.136-56.566-163.301zM528.605 197.541v-186.775c28.205 1.25 55.708 5.172 81.917 12.446 20.161 33.196 46.224 89.936 62.753 174.329h-144.67zM196.715 197.541c41.587-75.143 108.857-134.089 190.396-164.433-19.227 34.12-42.177 87.759-57.135 164.433h-133.261zM420.217 22.59c26.183-6.958 53.387-11.408 81.545-12.313v187.264h-144.655c16.63-84.902 42.904-141.834 63.11-174.951zM232.48 260.908v233.709h-29.651v-183.492l-122.75 183.492h-31.724v-233.709h29.651v183.651l122.751-183.651zM454.068 467.037v27.58h-168.981v-233.709h174.401v27.579h-143.474v79.551h129.286v27.42h-129.286v71.579zM543.023 260.908h31.563l49.58 178.071c2.123 7.545 4.408 16.684 6.854 27.42 0.742-3.402 3.189-12.542 7.334-27.42l49.26-178.071h29.811l64.084 233.708h-31.086l-36.664-150.172c-4.783-19.131-8.664-36.084-11.639-50.855-3.721 25.826-9.779 53.405-18.174 82.739l-33.477 118.289h-37.303l-44.477-157.825c-1.064-3.826-4.572-18.229-10.521-43.203-2.766 15.835-6.059 31.777-9.885 47.826l-35.549 153.202h-31.724l62.013-233.709zM976.156 360.146c-6.484 9.617-16.527 17.562-30.131 23.833-9.354 4.25-26.598 9.219-51.73 14.906-25.135 5.684-40.678 11.239-46.629 16.659-6.057 5.42-9.086 12.328-9.086 20.725 0 9.669 4.275 17.935 12.832 24.79 8.555 6.855 22.184 10.282 40.891 10.282 17.959 0 31.537-3.773 40.73-11.318 9.191-7.548 14.586-18.707 16.182-33.478l29.65 2.231c-0.533 13.71-4.359 25.985-11.479 36.826-7.121 10.84-17.295 19.050-30.527 24.63-13.232 5.58-28.51 8.369-45.832 8.369-15.73 0-30.025-2.658-42.883-7.971-12.861-5.316-22.637-13.1-29.332-23.355-6.695-10.258-10.043-21.283-10.043-33.080 0-10.736 2.734-20.433 8.209-29.094 5.473-8.664 13.789-15.917 24.949-21.761 8.607-4.57 23.645-9.433 45.115-14.587 21.465-5.156 35.334-8.954 41.607-11.398 9.775-3.721 16.791-8.316 21.043-13.789 4.248-5.476 6.375-11.877 6.375-19.21 0-7.229-2.207-13.897-6.615-20.008-4.412-6.112-11.135-10.92-20.166-14.427-9.035-3.508-19.449-5.261-31.246-5.261-13.285 0-25.242 2.312-35.867 6.935-10.629 4.623-18.469 10.681-23.514 18.174-5.051 7.492-8.266 17.082-9.646 28.774l-29.172-2.55c0.424-15.624 4.703-29.628 12.832-42.008 8.131-12.382 19.342-21.655 33.637-27.818 14.293-6.162 32.016-9.246 53.166-9.246 16.684 0 31.695 3.057 45.035 9.166 13.336 6.11 23.566 14.667 30.688 25.667 7.119 11 10.68 22.717 10.68 35.152 0 12.541-3.243 23.62-9.723 33.24z"  horiz-adv-x="1024" />

    
    <glyph glyph-name="crm3" unicode="&#58955;" d="M231.099 892.93c-125.072 0-226.463-101.305-226.463-226.269s101.391-226.269 226.463-226.269h226.464l-0 226.269c0 124.965-101.391 226.269-226.464 226.269zM793.423 851.998c49.564 0 96.159-19.283 131.202-54.297 35.034-35.004 54.328-81.542 54.328-131.040s-19.294-96.036-54.328-131.040c-35.044-35.013-81.639-54.297-131.202-54.297l-185.532 0v185.337c0 49.498 19.294 96.036 54.328 131.040 35.044 35.013 81.639 54.297 131.203 54.297M793.423 892.93c-125.073 0-226.464-101.305-226.464-226.269v-226.269h226.464c125.072 0 226.463 101.305 226.463 226.269s-101.391 226.269-226.463 226.269v0zM793.423-122.319c125.072 0 226.463 101.304 226.463 226.269s-101.391 226.269-226.463 226.269l-226.464 0v-226.269c0-124.964 101.391-226.269 226.464-226.269zM231.099-122.319c-125.072 0-226.463 101.304-226.463 226.269s101.391 226.269 226.463 226.269h226.464v-226.269c-0-124.964-101.391-226.269-226.464-226.269z"  horiz-adv-x="1024" />

    
    <glyph glyph-name="yonghu" unicode="&#58918;" d="M512 894.3616C230.10304 894.3616 1.6384 665.89696 1.6384 384c0-281.83552 228.46464-510.3616 510.3616-510.3616 281.83552 0 510.3616 228.51584 510.3616 510.3616C1022.3616 665.89696 793.83552 894.3616 512 894.3616zM511.8464-75.27424c-253.63456 0-459.32544 205.63968-459.32544 459.3152 0 253.68576 205.69088 459.32544 459.32544 459.32544 253.68576 0 459.3152-205.63968 459.3152-459.32544C971.17184 130.36544 765.5424-75.27424 511.8464-75.27424zM620.27776 363.5712c57.6 36.1984 96.01024 100.12672 96.01024 173.16864 0 112.95744-91.5968 204.51328-204.544 204.51328-112.98816 0-204.544-91.55584-204.544-204.51328 0-72.58112 37.90848-136.18176 94.90432-172.4928C286.53568 320.512 204.3392 208.86528 204.3392 77.9776l0-0.2048 51.73248 0c0.39936 139.86816 113.23392 253.26592 252.88704 254.52544 0.94208-0.01024 1.85344-0.14336 2.78528-0.14336 0.83968 0 1.64864 0.12288 2.48832 0.13312 139.38688-1.57696 251.84256-114.86208 252.29312-254.5152l49.83808 0 0 0.2048C816.37376 208.2304 734.95552 319.39584 620.27776 363.5712zM510.2592 384.60416c-84.82816 0-153.6 68.77184-153.6 153.6 0 84.82816 68.78208 153.6 153.6 153.6s153.6-68.78208 153.6-153.6C663.8592 453.376 595.07712 384.60416 510.2592 384.60416z"  horiz-adv-x="1024" />

    
    <glyph glyph-name="fanhui" unicode="&#58982;" d="M25.074 732.406l383.724-376.875c0 0 29.937-38.587 92.888-38.587 54.833 0 88.127 26.977 88.127 26.977l386.687 388.484c0 0-16.284 104.944-101.735 42.778-29.889-21.744-279.556-199.251-279.556-199.251s-116.9-43.165-199.638 14.39c-82.047 57.076-269.782 196.040-269.782 196.040s-88.060 36.151-100.715-53.956v0zM34.286 387.541l383.723-376.875c0 0 29.938-38.587 92.888-38.587 54.833 0 88.127 26.978 88.127 26.978l386.686 388.483c0 0-16.284 104.945-101.735 42.779-29.889-21.744-279.556-199.251-279.556-199.251s-116.9-43.165-199.638 14.391c-82.046 57.075-269.781 196.039-269.781 196.039s-88.060 36.149-100.714-53.959v0.002z"  horiz-adv-x="1024" />

    
    <glyph glyph-name="shenglvehao" unicode="&#59018;" d="M262.824941 390.794753m-84.482113 0a82.558 82.558 0 1 0 168.964226 0 82.558 82.558 0 1 0-168.964226 0ZM513.812275 391.689123m-84.482113 0a82.558 82.558 0 1 0 168.964226 0 82.558 82.558 0 1 0-168.964226 0ZM764.79961 391.689123m-84.482113 0a82.558 82.558 0 1 0 168.964226 0 82.558 82.558 0 1 0-168.964226 0Z"  horiz-adv-x="1024" />

    
    <glyph glyph-name="xiaolian" unicode="&#58896;" d="M945.835268 390.441713c0-238.629889-193.44478-432.076716-432.074669-432.076716S81.683882 151.811824 81.683882 390.441713c0 238.627842 193.445804 432.073646 432.075693 432.073646S945.835268 629.070578 945.835268 390.441713zM512.600169 787.824255c-219.981157 0-398.308635-178.327478-398.308635-398.306588 0-219.98218 178.327478-398.308635 398.308635-398.308635 219.980133 0 398.306588 178.327478 398.306588 398.308635C910.906757 609.496777 732.580303 787.824255 512.600169 787.824255zM291.920094 378.449587M704.603111 204.330968c-1.812275-1.693572-183.968965-167.398568-390.042367 3.906983l0 0c-8.843412 7.354502-11.059893 21.941732-4.952802 32.594349 6.092765 10.650571 18.21485 13.33675 27.069519 5.981225l0 0c182.892447-152.046928 342.501608-6.897084 344.097966-5.415336l0 0c8.499581 7.91732 20.723997 6.056949 27.297716-4.183276C714.646861 226.977757 713.100646 212.266707 704.603111 204.330968L704.603111 204.330968zM351.882767 515.9758m-47.273676 0a46.197 46.197 0 1 0 94.547353 0 46.197 46.197 0 1 0-94.547353 0ZM673.060721 517.401266m-47.273676 0a46.197 46.197 0 1 0 94.547353 0 46.197 46.197 0 1 0-94.547353 0Z"  horiz-adv-x="1024" />

    
    <glyph glyph-name="fuwuzhongxin1" unicode="&#58977;" d="M23.615381 828.970646 23.615381 828.970646 23.615381 828.970646 23.615381 828.970646zM368.049454 760.99993c15.923204 0 29.530978-5.526253 40.878285-16.518201 11.348306-11.052506 16.993478-24.478803 16.993478-40.403007L425.921217 474.435821c0-15.923204-5.644173-29.528979-16.993478-40.878285-11.347307-11.349305-24.95508-16.993478-40.878285-16.993478L138.405753 416.564058c-15.921205 0-29.41006 5.644173-40.402007 16.993478-10.991947 11.349305-16.515802 24.95508-16.515802 40.878285L81.487943 704.018563c0 15.923604 5.523655 29.41046 16.515802 40.402407 11.052506 10.991947 24.481402 16.518201 40.402007 16.518201L368.049454 760.99993zM368.049454 301.774285c15.923204 0 29.530978-5.528252 40.878285-16.5198 11.348306-11.052506 16.993478-24.477404 16.993478-40.402407l0-230.534098c0-15.921205-5.644173-29.40986-16.993478-40.402407-11.347307-10.991548-24.95508-16.515802-40.878285-16.515802L138.405753-42.600229c-15.921205 0-29.41006 5.524255-40.402007 16.515802-10.991947 11.052506-16.515802 24.481402-16.515802 40.402407L81.487943 244.852078c0 15.925203 5.523655 29.41006 16.515802 40.402407 11.052506 10.991548 24.481402 16.5198 40.402007 16.5198L368.049454 301.774285 368.049454 301.774285zM828.224456 301.774285c15.926202 0 29.410859-5.528252 40.403406-16.5198 10.991548-11.052506 16.5198-24.477404 16.5198-40.402407l0-230.534098c0-15.921205-5.528252-29.40986-16.5198-40.402407-11.052506-10.991548-24.477404-16.515802-40.403406-16.515802L598.581754-42.600229c-15.921205 0-29.525981 5.524255-40.875087 16.515802-11.350304 11.052506-16.994478 24.481402-16.994478 40.402407L540.712189 244.852078c0 15.925203 5.644173 29.41006 16.994478 40.402407 11.349305 10.991548 24.953881 16.5198 40.875087 16.5198L828.224456 301.774285 828.224456 301.774285zM955.853523 659.993013c12.235704-12.240701 18.357554-26.618952 18.357554-43.197512 0-16.575762-6.121849-30.599254-18.357554-42.242759l-170.880743-170.881742c-12.2417-12.237703-26.501032-18.358553-42.719836-18.358553-16.223001 0-30.483332 6.12085-42.724033 18.358553l-170.760824 170.881742c-11.646104 11.644105-17.467157 25.727557-17.467157 42.242759 0 16.518201 5.821053 30.957011 17.467157 43.197512l170.881742 170.878744c12.2417 11.646104 26.501032 17.469556 42.720036 17.469556 16.223001 0 30.482333-5.823452 42.717837-17.469556L955.853523 659.993013z"  horiz-adv-x="1024" />

    
    <glyph glyph-name="guanyuwomen2" unicode="&#58887;" d="M1002.854 71.474c2.74-9.012 4.7-20.375 6.267-33.692 1.57-12.928 2.353-26.643 2.353-39.962 0-13.32-0.783-26.25-3.136-38.006-1.956-11.752-5.092-20.766-9.011-26.639-2.742-3.919-10.186-7.837-23.116-11.755-12.928-3.918-28.992-7.442-47.798-10.578-19.197-3.525-40.356-6.27-63.467-9.403s-46.23-5.486-69.735-7.446c-23.508-1.957-45.841-3.524-67.781-5.092-21.547-1.174-40.746-1.957-57.201-1.957-16.456 0-35.259 0.783-56.809 1.957-21.159 1.57-43.488 3.135-66.601 5.092-23.117 1.959-45.841 4.313-68.171 6.271-22.332 2.35-43.097 5.093-61.901 7.837-18.806 3.135-34.478 5.879-47.406 9.011-12.928 3.135-20.764 5.878-24.29 8.619-5.092 4.702-9.402 18.414-12.928 41.53-3.135 23.116-2.35 52.891 3.134 88.935 3.135 21.155 11.755 36.828 25.073 47.404 13.324 10.579 29.386 19.197 47.8 25.858 18.411 6.661 37.219 12.146 56.808 17.24 19.59 5.094 36.829 12.147 51.716 22.334 11.753 7.836 20.764 15.279 27.032 21.547 6.27 6.661 10.578 13.321 13.713 19.59 3.134 6.66 4.31 13.71 4.31 20.766 0 7.051-0.393 15.279-1.178 24.682-1.568 12.927-5.878 23.507-13.711 31.342-7.837 7.442-16.456 14.887-25.858 22.331-4.701 3.919-8.619 9.403-12.146 16.847-3.526 7.051-6.659 14.495-9.403 21.548-2.742 7.836-5.093 16.845-7.837 26.638-3.919 1.568-7.837 3.526-11.755 5.878-3.525 2.741-6.659 6.66-10.184 11.753-3.917 5.092-7.053 12.538-10.185 21.547-3.525 9.012-4.702 18.023-3.918 26.25 0.783 8.227 2.35 14.888 5.094 20.373 2.74 6.659 6.267 12.538 10.575 17.631-0.39 21.154 0.393 42.703 3.135 64.251 2.741 18.413 6.659 37.611 12.146 57.982 5.485 19.982 14.105 38.788 26.249 56.026 10.578 15.671 22.332 28.601 35.652 38.395 12.928 9.796 26.639 17.631 40.352 23.117 13.715 5.484 27.816 9.403 41.532 11.362 13.71 1.957 27.031 3.133 39.567 3.133 33.693 0 63.467-7.051 90.111-20.764 26.25-13.713 45.838-28.601 58.377-44.27 14.495-18.023 25.074-37.611 32.127-59.944 7.051-21.939 11.751-42.705 15.276-61.51 3.525-22.332 4.703-44.663 3.921-66.994 3.133-2.742 6.27-6.27 9.011-10.579 1.958-3.918 3.917-9.012 5.484-15.281 1.567-6.269 1.962-14.104 0.393-23.115-1.567-11.755-3.918-21.546-7.838-28.601-3.918-7.051-7.837-12.928-11.752-16.849-4.702-4.701-9.793-7.442-15.67-9.011-2.744-9.793-5.095-18.806-7.838-26.639-2.742-7.053-5.878-14.495-9.795-21.547-3.918-7.051-8.228-12.538-12.538-15.671-5.092-4.702-10.184-8.619-14.495-11.753-4.309-3.526-7.836-6.66-11.362-10.185-3.526-3.526-6.269-7.837-8.227-12.146-2.351-4.701-4.31-10.184-5.484-16.847-1.175-8.619-1.959-17.238-1.567-26.249 0.391-9.011 2.35-17.631 6.269-25.858 3.918-8.619 10.183-16.849 19.196-24.683 9.011-7.836 21.156-14.888 37.22-20.764 13.713-5.878 28.992-10.97 45.838-15.279 16.847-4.31 32.909-9.405 48.579-15.281 15.671-5.877 29.387-13.713 41.532-22.724 12.142-11.758 20.76-23.513 26.248-38.008M475.905 253.262c-1.567-7.445-3.134-12.93-5.093-16.849s-6.659-8.228-13.711-12.928c-17.239-10.578-35.652-19.196-55.241-25.467-19.98-6.659-38.787-13.711-56.809-21.547-18.020-7.837-33.692-18.412-47.404-31.342-13.321-12.927-21.94-30.951-25.073-54.851-1.175-7.445-1.959-14.496-2.353-21.155-0.39-7.051-0.783-13.32-1.565-19.197-0.785-1.174-1.567-2.351-1.959-3.524-0.39-1.178-1.174-1.961-1.959-3.526-25.858 1.958-51.714 4.309-77.963 7.050-26.25 2.741-50.54 5.878-72.48 9.011-21.94 3.526-40.746 6.662-56.026 9.796-15.281 3.132-24.68 6.658-28.601 9.793-5.877 4.701-10.185 18.413-13.321 41.529-3.133 23.116-1.957 52.891 3.526 89.719 3.135 20.373 11.755 36.044 25.075 47.013 13.711 10.579 29.384 19.59 48.187 25.468 18.413 6.27 37.221 12.143 56.809 17.239 19.591 5.092 36.829 12.538 51.716 21.546 11.756 7.839 20.766 15.281 27.425 21.549 6.267 6.659 10.575 13.319 13.32 20.372 2.742 7.053 3.918 14.106 3.918 21.155 0 7.053-0.391 15.282-1.175 23.508-1.175 13.32-5.877 23.508-13.32 31.342-7.443 7.445-16.062 15.281-25.074 23.116-5.093 3.526-9.795 8.619-13.321 15.671-3.526 7.051-6.659 14.495-9.403 21.546-2.742 7.837-5.093 16.849-7.837 26.639-3.918 1.57-7.837 3.526-11.753 5.879-3.525 2.742-6.661 6.659-10.186 11.752-3.526 5.093-7.051 12.539-10.185 21.547-3.135 9.011-4.702 18.023-3.917 25.858 0.782 8.226 2.35 15.281 5.092 21.156 2.741 7.050 6.269 13.319 10.579 17.629-0.786 21.155 0.39 42.703 3.134 64.252 2.742 18.022 7.051 36.827 12.928 57.201 5.876 20.375 14.889 38.784 26.638 55.24 10.579 15.671 22.334 28.6 35.653 38.395 12.927 9.793 26.248 17.629 39.962 23.114 13.319 5.486 27.032 9.404 41.135 11.363 13.711 1.958 27.425 3.133 40.356 3.133 32.909 0 62.685-7.051 88.935-20.764s46.231-28.601 59.551-44.662c8.619-10.971 14.103-21.548 16.062-30.951 2.349-9.404 5.485-20.764 9.402-33.303-12.537-7.051-25.857-18.022-39.961-32.126-14.106-14.105-26.25-28.601-37.219-43.097-12.928-18.411-23.115-38.787-29.775-61.116-6.659-22.332-11.362-43.097-14.889-62.296-3.134-23.114-4.7-45.837-4.7-68.953-5.093-5.877-9.404-12.538-11.755-19.588-2.744-6.661-4.309-14.498-5.093-23.117-0.783-9.010 0.785-18.413 3.917-28.992 3.526-11.362 7.051-19.981 10.579-25.465 3.918-5.878 7.445-10.579 10.972-13.714 3.916-3.917 7.837-6.66 11.752-7.837 2.744-10.578 5.093-20.372 7.837-29.773 2.741-7.836 5.877-16.061 9.403-24.29 3.919-8.227 8.228-14.106 13.321-18.414 4.702-3.918 8.228-7.050 10.579-9.792 2.742-2.744 4.702-5.094 6.659-7.446 1.568-2.35 2.742-5.484 3.135-9.402-0.782-2.35 0-7.442 1.568-14.103z"  horiz-adv-x="1024" />

    
    <glyph glyph-name="wechat" unicode="&#58931;" d="M306.282 588.659c-9.882 0-19.707-4.068-26.696-11.059-6.987-6.987-11.055-16.809-11.055-26.69 0-9.882 4.068-19.705 11.055-26.69 6.989-6.985 16.814-11.055 26.696-11.055s19.707 4.070 26.694 11.055c6.987 6.985 11.057 16.807 11.057 26.69 0 9.88-4.070 19.703-11.057 26.69-6.987 6.991-16.812 11.059-26.694 11.059zM592.112 385.279c-7.736 0-15.428-3.187-20.899-8.657-5.471-5.468-8.657-13.157-8.657-20.892 0-7.733 3.187-15.424 8.657-20.897 5.471-5.463 13.163-8.652 20.899-8.652 7.735 0 15.428 3.189 20.895 8.652 5.473 5.473 8.661 13.163 8.661 20.897 0 7.736-3.189 15.424-8.661 20.892-5.465 5.471-13.159 8.657-20.895 8.657zM498.854 513.167c9.882 0 19.707 4.070 26.696 11.055 6.987 6.985 11.055 16.807 11.055 26.69 0 9.88-4.068 19.703-11.055 26.69-6.989 6.991-16.814 11.059-26.696 11.059s-19.705-4.068-26.694-11.059c-6.991-6.987-11.061-16.809-11.061-26.69 0-9.882 4.070-19.705 11.061-26.69 6.989-6.985 16.811-11.055 26.694-11.055zM812.812 834.16h-605.876c-80.216 0-145.248-65.227-145.248-145.694l0-604.984c0-80.468 65.032-145.696 145.248-145.696h605.875c80.216 0 145.248 65.229 145.248 145.696l-0 604.984c0.001 80.468-65.027 145.694-145.247 145.694zM398.065 233.62c-33.921 0-61.198 6.927-95.192 13.639l-95-47.622 27.18 81.728c-68.035 47.544-108.75 108.793-108.75 183.436 0 129.274 122.373 231.067 271.761 231.067 133.624 0 250.681-81.339 274.198-190.809-8.646 0.966-17.36 1.597-26.167 1.597-129.089 0-231.046-96.322-231.046-215.021 0-19.756 3.075-38.783 8.386-56.936-8.387-0.659-16.842-1.080-25.371-1.080zM798.934 138.447l20.442-67.9-74.545 40.819c-27.178-6.808-54.479-13.643-81.541-13.643-129.302 0-231.14 88.359-231.14 197.171 0 108.631 101.839 197.177 231.14 197.177 122.113 0 230.833-88.546 230.833-197.177 0.001-61.274-40.641-115.531-95.189-156.446zM740.194 385.279c-7.736 0-15.426-3.187-20.895-8.657-5.473-5.468-8.661-13.157-8.661-20.892 0-7.733 3.189-15.424 8.661-20.897 5.468-5.463 13.159-8.652 20.895-8.652 7.738 0 15.428 3.189 20.901 8.652 5.465 5.473 8.654 13.163 8.654 20.897 0 7.736-3.189 15.424-8.654 20.892-5.472 5.471-13.163 8.657-20.901 8.657z"  horiz-adv-x="1024" />

    
    <glyph glyph-name="icon1" unicode="&#58968;" d="M463.121779 770.55801c0 33.995255 29.188786 61.538565 65.182558 61.538565 35.999912 0 65.172325-27.54331 65.172325-61.538565l0-342.323553c0-33.985022-29.172413-61.533448-65.172325-61.533448-35.994796 0-65.182558 27.548426-65.182558 61.533448L463.121779 770.55801 463.121779 770.55801zM512.005117-64.095551c-224.976938 0-407.359778 172.21527-407.359778 384.640334 0 163.541727 108.297518 302.880215 260.71079 358.520443L365.356129 542.137647c-78.180594-46.232974-130.354883-128.068817-130.354883-221.592864 0-144.455019 124.027781-261.551948 277.004895-261.551948 152.98837 0 276.999778 117.096928 276.999778 261.551948 0 79.858816-38.009685 151.2334-97.760534 199.215204L691.245384 665.545304c134.977157-62.657039 228.110301-193.397708 228.110301-345.011778C919.364895 108.119719 736.982054-64.095551 512.005117-64.095551L512.005117-64.095551zM512.005117-64.095551"  horiz-adv-x="1024" />

    
    <glyph glyph-name="iconfonticon" unicode="&#58915;" d="M979.318 577.572c-25.337 61.17-62.828 117.278-109.646 164.099-46.821 46.821-102.933 84.308-164.106 109.649-61.17 25.337-127.358 38.505-193.572 38.505-66.209 0-132.394-13.169-193.572-38.505-61.17-25.34-117.278-62.826-164.099-109.649-46.821-46.823-84.308-102.928-109.65-164.099-25.337-61.179-38.503-127.363-38.503-193.572 0-66.214 13.166-132.4 38.503-193.572 25.341-61.17 62.828-117.283 109.65-164.106 46.823-46.816 102.928-84.308 164.099-109.646 61.179-25.341 127.363-38.503 193.572-38.503 66.214 0 132.4 13.162 193.572 38.503 61.17 25.337 117.283 62.828 164.106 109.646 46.816 46.821 84.308 102.933 109.646 164.106 25.341 61.17 38.508 127.358 38.508 193.572 0 66.211-13.166 132.396-38.508 193.572zM849.415 570.455c-47.808-125.036-92.874-251.158-149.425-372.656-32.83-70.532-76.698-127.306-167.773-121.692-22.644-2.736-45.699 2.822-68.415 12.050-76.659 31.14-153.747 61.238-230.209 92.848-57.024 23.567-82.428 67.937-75.869 124.462 2.356 20.286 8.413 26.128 28.687 18.704 87.569-32.066 175.338-63.63 263.487-94.065 20.155-6.954 22.411-20.141 23.87-37.847 2.508-30.294 14.528-54.767 46.665-65.017 34.076-10.855 62.294-0.591 86.53 22.862 23.169 22.399 36.226 51.593 49.301 80.373 47.311 104.171 86.721 211.502 127.665 318.243 11.394 29.709 5.711 38.324-25.683 43.065-93.655 14.149-187.030 30.566-279.93 49.031-25.374 5.049-34.126-1.792-42.932-23.99-33.278-83.894-68.739-166.935-103.134-250.39-8.227-19.957-15.499-43.649-43.727-31.14-26.122 11.571-13.121 32.517-5.865 50.274 37.57 91.903 75.748 183.557 112.811 275.664 11.084 27.53 25.219 39.314 58.106 32.957 119.552-23.099 239.605-43.763 359.804-63.296 39.561-6.441 51.114-20.994 36.038-60.441zM611.362 406.405c12.546-3.882 19.774-14.043 15.742-28.158-4.732-16.556-17.835-18.085-36.187-16.063-35.121 10.16-74.107 20.849-112.66 32.925-11.786 3.69-22.096 12.974-18.843 26.849 3.546 15.093 16.585 22.763 31.083 19.067 40.591-10.378 80.832-22.231 120.864-34.618zM508.933 523.103c4.639 19.127 22.575 15.984 44.761 14.57 28.235-6.795 63.49-14.475 98.224-24.026 14.333-3.937 30.849-10.875 23.783-30.972-5.939-16.911-21.21-20.417-37.411-16.576-33.629 7.97-66.989 17.062-100.64 24.917-17.726 4.13-33.871 10.802-28.716 32.084zM561.646 310.769c14.105-4.346 24.19-13.302 20.499-29.71-3.878-17.275-18.533-19.612-31.884-16.215-39.009 9.947-77.714 21.21-116.159 33.18-13.822 4.307-24.031 14.706-17.498 30.673 5.813 14.211 18.595 18.395 33.519 15.385 37.194-11.070 74.457-21.87 111.523-33.31z"  horiz-adv-x="1024" />

    
    <glyph glyph-name="shangchuan1" unicode="&#58916;" d="M801.129412 540.792471C751.616 667.828706 631.506824 757.458824 491.218824 757.458824c-178.176 0-323.584-144.203294-333.824-325.993412C68.848941 421.044706 0 343.280941 0 248.771765 0 147.154824 79.570824 64.752941 177.694118 64.752941l257.927529 0 0 162.153412L306.657882 226.906353c-12.589176 12.589176-12.589176 33.069176 0 45.658353l182.573176 200.282353c12.589176 12.589176 33.008941 12.589176 45.537882 0l182.633412-200.282353c12.528941-12.589176 12.528941-33.069176 0-45.658353L588.438588 226.906353 588.438588 64.752941l205.763765 0C921.178353 64.752941 1024 171.429647 1024 302.863059 1024 431.947294 924.852706 536.937412 801.129412 540.792471z"  horiz-adv-x="1024" />

    
    <glyph glyph-name="fuwuzhongxin2" unicode="&#59069;" d="M23.655004 467.671355m-21.626497 0a21.152 21.152 0 1 0 43.252994 0 21.152 21.152 0 1 0-43.252994 0ZM857.604308 192.152317c-38.225693 79.621949-133.936643 113.095374-213.777393 74.764371-31.695415-15.216866-56.114176-39.465904-71.660265-68.154344-53.034608 36.910844-99.915194 91.144766-132.299728 158.598743-32.226057 67.124754-45.26003 137.264662-41.087482 201.475482 32.273089-5.95976 66.683063-2.114391 98.565583 13.19245 79.84075 38.331003 113.575918 133.949935 75.350225 213.571884-1.267817 2.639921-2.602091 5.225654-3.993622 7.763332-31.601351 49.801676-90.173455 125.715262-225.094701 60.941081-189.934262-91.185663-249.026784-362.734595-131.986864-606.522434s365.891868-367.496065 555.826129-276.311424c2.823959 1.355746 5.608044 2.765681 8.373724 4.201176 2.154266 0.922234 4.300352 1.884344 6.433147 2.907799 13.841694 6.64479 26.294925 15.015447 37.229843 24.722423 82.754683 69.005008 56.829879 139.129579 41.224488 181.962354C859.729945 187.571818 858.700355 189.869225 857.604308 192.152317zM266.411208-16.376929c-13.647432 8.469833-26.866465 17.583798-39.645852 27.313268-0.278102 0.230047-3.040715 2.376134-3.511034 2.750344-1.452877 1.154327-2.897574 2.316833-4.33716 3.487518-3.285076 2.671617-6.53539 5.387198-9.750941 8.142654-6.214346 5.327897-12.297821 10.810181-18.237133 16.443786-11.838749 11.226311-23.123339 23.038477-33.790379 35.38333-5.32483 6.162202-10.423702 12.494128-15.502125 18.858772-0.022494 0.028628-0.034763 0.042942-0.055211 0.069525-0.577674 0.76069-1.159439 1.518313-1.735068 2.280025-1.107295 1.464124-2.207432 2.934382-3.298368 4.411797-2.492691 3.374028-4.943462 6.780774-7.349246 10.21717-18.650195 26.642552-34.677851 55.119349-47.747609 84.899747-0.247429 0.562338-1.577614 3.668489-1.756539 4.063148-0.511216 1.227942-1.023455 2.455883-1.524447 3.687915-1.586816 3.897514-3.12251 7.815476-4.609127 11.752864-2.88326 7.639617-5.579415 15.350805-8.078241 23.125384-5.0181 15.611525-9.262218 31.473547-12.69248 47.509382-1.947734 9.103741-3.636793 18.261671-5.063087 27.461521-0.368076 2.373066-0.712636 4.7492-1.052083 7.126356-0.009202 0.066458-0.028628 0.205509-0.051122 0.37421-0.104288 0.831238-0.274012 2.181871-0.308775 2.46304-0.588921 4.784985-1.108317 9.57815-1.556143 14.378472-1.756539 18.835256-2.385336 37.756396-1.97943 56.667312 0.215733 10.060738-8.996386 19.682853-19.224803 19.224803-10.600583-0.474409-18.99271-8.444272-19.224803-19.224803-1.476393-68.781095 11.014668-138.106124 37.061142-201.81084 26.241759-64.182192 64.623883-122.875966 113.842773-171.843337 27.651693-27.509575 58.635495-51.847564 91.771517-72.411753 8.55674-5.310516 21.540613-2.116436 26.302082 6.896309C278.283696-33.261383 275.544599-22.045296 266.411208-16.376929zM984.989202 501.91365c-27.203868 70.649079-69.376151 135.163562-124.081414 187.616407-28.978811 27.785632-61.363345 52.212572-95.997232 72.508885-8.682499 5.087625-21.456773 2.274913-26.302082-6.896309-4.872914-9.223366-2.373066-20.870919 6.896309-26.302082 14.715874-8.62422 29.001304-17.956986 42.756092-28.046352 1.491729-1.094003 2.978347-2.197208 4.457807-3.308592 0.49588-0.372166 3.138868-2.394537 3.37505-2.563239 3.175676-2.476332 6.320679-4.992539 9.432964-7.548621 6.638656-5.450589 13.134171-11.078059 19.477344-16.872185 12.184331-11.130203 23.810413-22.87182 34.817924-35.167596 6.273647-7.008776 12.348943-14.195456 18.211572-21.55186 4.471098-5.610088 9.131347-11.837726 14.456176-19.388392 10.554573-14.96637 20.277908-30.518595 29.110705-46.562609 4.274791-7.764354 8.338961-15.644243 12.190465-23.627398 1.855715-3.846392 3.662354-7.717322 5.417871-11.610746 0.94575-2.098032 1.876164-4.202199 2.792264-6.3125 0.27299-0.627774 0.542912-1.25657 0.812834-1.886388 0.072593-0.186083 0.956997-2.292294 1.086846-2.610271 13.597333-33.119664 23.569119-67.71572 29.662818-102.996806 0.854754-4.945507 1.618511-9.906351 2.326034-14.874351 0.003067-0.114512 0.490768-3.79527 0.577674-4.515063 0.317977-2.630719 0.614482-5.264506 0.889516-7.900338 1.070487-10.25909 1.816863-20.552943 2.234016-30.859065 0.843507-20.889323 0.307752-41.803185-1.476393-62.631162-0.859866-10.046424 9.45648-19.662404 19.224803-19.224803 11.150651 0.498947 18.302568 8.462676 19.224803 19.224803C1023.040058 353.651702 1012.282021 431.033501 984.989202 501.91365zM329.622089-58.523651m-21.626497 0a21.152 21.152 0 1 0 43.252994 0 21.152 21.152 0 1 0-43.252994 0ZM987.799869 211.892426m-21.626497 0a21.152 21.152 0 1 0 43.252994 0 21.152 21.152 0 1 0-43.252994 0ZM702.08002 779.250574m-21.626497 0a21.152 21.152 0 1 0 43.252994 0 21.152 21.152 0 1 0-43.252994 0Z"  horiz-adv-x="1034" />

    
    <glyph glyph-name="shouye-copy" unicode="&#58888;" d="M1007.968 375.645l-501.053 468.483-501.053-467.107c-9.802-9.138-10.349-24.507-1.188-34.299 9.151-9.785 24.538-10.338 34.333-1.179l467.871 436.154 467.892-437.482c4.694-4.386 10.653-6.554 16.601-6.554 6.475 0 12.953 2.572 17.731 7.69 9.169 9.785 8.665 25.139-1.136 34.292v0zM1007.968 375.645zM855.071 366.022c-13.411 0-24.29-10.873-24.29-24.267v-372.095h-194.331v258.848h-259.104v-258.848h-194.323v372.095c0 13.394-10.868 24.267-24.289 24.267-13.429 0-24.295-10.873-24.295-24.267v-420.627h291.493v258.847h161.94v-258.847h291.486v420.627c0.001 13.394-10.881 24.267-24.286 24.267v0zM855.071 366.022zM685.037 713.847h145.744v-129.421c0-13.414 10.881-24.272 24.29-24.272 13.407 0 24.287 10.858 24.287 24.272v177.953h-194.322c-13.414 0-24.295-10.852-24.295-24.267-0.001-13.41 10.881-24.267 24.295-24.267v0zM685.037 713.847z"  horiz-adv-x="1024" />

    
    <glyph glyph-name="dianhua-copy-copy-copy-copy" unicode="&#58882;" d="M523.171 891.71c-280.612 0-508.093-227.484-508.092-508.097 0-280.591 227.481-508.074 508.092-508.076 280.613 0 508.074 227.483 508.075 508.075-0.001 280.615-227.461 508.097-508.075 508.098zM720.882 150.010c-35.809-35.827-169.333-1.868-301.253 130.038-131.921 131.946-165.824 265.449-130.055 301.255 31.078 31.037 68.919 85.287 125.637 14.668 56.759-70.641 28.835-90.372-3.154-122.404-22.427-22.385 24.313-79.003 73.191-127.879 48.919-48.857 105.493-95.557 127.92-73.236 32.032 32.034 51.781 59.937 122.382 3.177 70.598-56.78 16.389-94.578-14.667-125.617z"  horiz-adv-x="1024" />

    
    <glyph glyph-name="weixin" unicode="&#58943;" d="M573.44 384c-10.24 0-20.48-10.24-20.48-20.48 0-10.24 10.24-20.48 20.48-20.48 15.36 0 25.6 10.24 25.6 20.48C604.16 373.76 588.8 384 573.44 384zM501.76 486.4c15.36 0 25.6 10.24 25.6 25.6 0 15.36-10.24 25.6-25.6 25.6-15.36 0-30.72-10.24-30.72-25.6C471.04 496.64 486.4 486.4 501.76 486.4zM353.28 542.72c-15.36 0-30.72-10.24-30.72-25.6C317.44 496.64 332.8 486.4 353.28 486.4s25.6 10.24 25.6 25.6C378.88 532.48 368.64 542.72 353.28 542.72zM716.8 896 307.2 896C138.24 896 0 757.76 0 588.8l0-409.6c0-168.96 138.24-307.2 307.2-307.2l409.6 0c168.96 0 307.2 138.24 307.2 307.2L1024 588.8C1024 757.76 885.76 896 716.8 896zM419.84 266.24c-25.6 0-51.2 5.12-76.8 10.24l-76.8-35.84 20.48 66.56C235.52 343.04 204.8 389.12 204.8 450.56c0 102.4 97.28 184.32 215.04 184.32 107.52 0 199.68-66.56 220.16-153.6-5.12 0-15.36 0-20.48 0-102.4 0-184.32-76.8-184.32-174.08 0-15.36 0-30.72 5.12-46.08C435.2 266.24 430.08 266.24 419.84 266.24zM742.4 189.44l15.36-56.32-61.44 30.72c-20.48-5.12-46.08-10.24-66.56-10.24-102.4 0-184.32 71.68-184.32 158.72 0 87.04 81.92 158.72 184.32 158.72 97.28 0 184.32-71.68 184.32-158.72C819.2 266.24 788.48 220.16 742.4 189.44zM696.32 384c-10.24 0-20.48-10.24-20.48-20.48 0-10.24 10.24-20.48 20.48-20.48 15.36 0 25.6 10.24 25.6 20.48C721.92 373.76 711.68 384 696.32 384z"  horiz-adv-x="1024" />

    
    <glyph glyph-name="dianhua1" unicode="&#58945;" d="M716.8 896 307.2 896C138.24 896 0 757.76 0 588.8l0-409.6c0-168.96 138.24-307.2 307.2-307.2l409.6 0c168.96 0 307.2 138.24 307.2 307.2L1024 588.8C1024 757.76 885.76 896 716.8 896zM757.76 92.16c-46.08-46.08-209.92 0-373.76 163.84-163.84 163.84-204.8 327.68-163.84 373.76C261.12 670.72 307.2 737.28 378.88 650.24c71.68-87.04 35.84-112.64-5.12-153.6-25.6-25.6 30.72-97.28 92.16-158.72 61.44-61.44 133.12-117.76 158.72-92.16 40.96 40.96 66.56 76.8 153.6 5.12S798.72 133.12 757.76 92.16z"  horiz-adv-x="1024" />

    
    <glyph glyph-name="fuwuzhongxin3" unicode="&#58997;" d="M988.260655 560.7615c5.952364 71.428771-23.809457 136.905178-83.3335 196.429021-172.619564 172.619564-357.143856 0-363.096221 0l-35.714386-41.66675-17.857093 23.809657c-5.952364 0-83.3335 83.3335-196.429021 83.3335l0 0c-65.476407 0-125.00045-29.762021-184.524293-83.3335-47.619114-47.619114-71.428771-107.143157-71.428771-166.6672 0-119.047886 95.238428-220.238678 125.00025-250.0007l-17.857093-23.809457c-23.809657-29.762021-17.857093-77.381136 11.904729-107.143157 11.904729-11.904729 29.762021-17.857293 47.619114-17.857293l5.952364 0c0-23.809457 11.904729-41.66675 29.762021-53.571479 11.904729-11.904729 29.762021-17.857093 47.619114-17.857093l5.952364 0 0-5.952364c0-17.857093 11.904729-35.714386 29.762021-47.619114 11.904729-11.904729 29.762021-17.857293 47.619114-17.857293l5.952364 0c0 0 0 0 5.952364 0 0-17.857093 11.904729-35.714386 29.762021-47.619114 11.904729-11.904729 29.762021-17.857093 47.619114-17.857093s29.762021 5.952364 41.66675 11.904729l11.904729-17.857093c11.904729-17.857293 35.714386-23.809457 53.571479-23.809457l0 0c17.857293 0 41.66675 5.952364 53.571479 23.809457 17.857293 11.904729 23.809657 35.714386 23.809657 53.571678l0 5.952364c0 0 0 0 5.952364 0l0 0c17.857293 0 41.66675 5.952364 53.571479 23.809457 17.857293 11.904729 23.809657 35.714386 23.809657 53.571479l0 5.952364 0 0 0 0c17.857093 0 41.66675 5.952364 53.571479 23.809657 17.857293 11.904729 23.809657 35.714386 23.809657 53.571479l0 5.952364c0 0 0 0 5.952364 0 17.857293 0 41.66675 5.952364 53.571678 23.809657 17.857093 11.904729 23.809457 35.714386 23.809457 53.571479 0 23.809657-5.952364 41.66675-23.809457 59.524043l-11.904729 11.904729C916.831884 376.237207 982.308091 459.570907 988.260655 560.7615zM571.592756 727.428699c5.952364 5.952364 160.714635 142.857543 303.572378 0 53.571678-53.571479 77.381136-107.143157 71.428771-166.6672-5.952364-83.3335-59.523843-154.762271-101.190593-196.429221l-196.429221 202.381585-11.904729-17.857293c-5.952364 5.952364-101.190793-107.143157-208.33395-107.143157l0 0c-35.714386 0-65.476407 11.904729-95.238428 41.66675L571.592756 727.428699zM184.687078 227.4273c-11.904729 11.904729-17.857093 35.714386-5.952364 47.619114l83.3335 107.143157c5.952364 5.952364 11.904729 11.904729 23.809657 11.904729 11.904729 0 17.857293 0 23.809657-5.952364 5.952364-5.952364 11.904729-11.904729 11.904729-23.809657 0-5.952364 0-11.904729-5.952364-17.857093-5.952364 0-5.952364-5.952364-11.904729-11.904729l-89.285864-107.143157 0 0C208.496535 215.522372 190.639442 215.522372 184.687078 227.4273zM262.068214 155.998529c-11.904729 11.904729-17.857293 29.762021-5.952364 41.66675l5.952364 5.952364 89.286064 107.143157c0 0 0 0 0 5.952364 0 0 5.952364 5.952364 11.904729 5.952364 11.904729 0 17.857293 0 23.809657-5.952364 5.952364-5.952364 11.904729-11.904729 11.904729-23.809657 0-5.952364 0-17.857093-5.952364-23.809457 0 0 0-5.952364-5.952364-5.952364l-89.286064-107.143157 0 0c-5.952364-5.952364-11.904729-5.952364-17.857293-5.952364C273.972942 144.0938 268.020578 150.046165 262.068214 155.998529zM363.258807 72.665029c-11.904729 0-17.857293 0-23.809657 5.952364-5.952364 5.952364-11.904729 17.857093-11.904729 23.809657 0 5.952364 0 17.857093 5.952364 23.809457l5.952364 5.952364 89.285864 107.143157 0 0c5.952364 5.952364 11.904729 5.952364 17.857293 5.952364 0 0 0 0 5.952364 0 5.952364 0 17.857293 0 23.809657-5.952364 11.904729-11.904729 17.857293-29.762021 5.952364-41.66675l0 0-89.285864-107.143157c0 0 0-5.952364-5.952364-5.952364C375.163735 78.617393 369.211371 72.665029 363.258807 72.665029zM422.782849 19.093351c-5.952364 5.952364-11.904729 11.904729-11.904729 23.809457 0 5.952364 0 11.904729 5.952364 17.857093l0 0 89.285864 107.143157c0 0 0 5.952364 5.952364 5.952364 5.952364 5.952364 11.904729 11.904729 23.809457 11.904729 5.952364 0 11.904729 0 23.809657-5.952364 5.952364-5.952364 11.904729-11.904729 11.904729-23.809457s0-17.857293-5.952364-23.809657l-95.238228-107.143157C458.497235 7.188622 440.640142 7.188622 422.782849 19.093351zM601.354777-16.621035c-5.952364-5.952364-17.857093-11.904729-29.762021-11.904729-11.904729 0-17.857093 5.952364-29.762021 11.904729l-23.809657 29.762021 47.619114 59.524043 35.714386-35.714386c5.952364-5.952364 11.904729-17.857093 11.904729-29.762021C613.259506 1.236258 607.307142-10.668671 601.354777-16.621035zM851.355477 239.332029c-11.904729-11.904729-35.714386-11.904729-47.619114-5.952364 0 0 0 5.952364-5.952364 5.952364l-130.952614 142.857543c0 0-5.952364 5.952364-11.904729 5.952364-5.952364 5.952364-17.857293 0-23.809657-5.952364-5.952364-5.952364-5.952364-17.857293 0-29.762021l136.905178-142.857543 5.952364-5.952364c11.904729-17.857093 5.952364-35.714386-5.952364-47.619114-11.904729-11.904729-35.714386-11.904729-53.571479 0l0 0-130.952814 142.857543-5.952364 5.952364c-5.952364 5.952364-17.857093 5.952364-23.809457 0-5.952364-5.952364-5.952364-17.857293 0-29.762021l136.905178-142.857543c0 0 0 0 5.952364-5.952364 5.952364-5.952364 11.904729-17.857093 11.904729-29.762021 0-11.904729-5.952364-17.857293-11.904729-29.762021-5.952364-5.952364-17.857293-11.904729-29.762021-11.904729s-17.857293 5.952364-29.762021 11.904729L601.354777 102.42705c11.904729 11.904729 11.904729 29.762021 11.904729 47.619114s-11.904729 35.714386-29.762021 47.619114c-17.857293 11.904729-35.714386 17.857293-59.524043 17.857293 0 17.857093-11.904729 35.714386-29.762021 47.619114-17.857093 23.809457-35.714386 29.761821-53.571479 23.809457l0 5.952364c0 17.857293-11.904729 35.714386-29.762021 47.619314-11.904729 17.857093-29.762021 23.809457-47.619114 23.809457l0 5.952364c0 17.857293-11.904729 35.714386-29.762021 47.619314-17.857293 11.904729-29.762021 17.857093-53.571678 17.857093-17.857093 0-35.714386-11.904729-47.619114-29.762021l-47.619114-53.571678C154.925057 382.189571 77.543921 471.475636 77.543921 572.666228c0 53.571479 17.857093 95.238428 59.524043 136.905178 47.619114 47.619114 101.190793 71.428771 154.762271 71.428771 95.238428 0 160.714635-71.428771 160.714635-71.428771l17.857293-23.809657-196.429221-202.381585 11.904729-11.904729c41.66675-47.619114 89.286064-71.428771 142.857543-71.428771l0 0c95.238428 0 184.524293 77.381136 220.238678 113.095521l65.476407-71.428771c0 0 0-5.952364 5.952364-5.952364l136.905178-142.857543c5.952364-5.952364 11.904729-17.857093 11.904729-29.762021C863.260206 257.189322 863.260206 245.284393 851.355477 239.332029z"  horiz-adv-x="1024" />

    
    <glyph glyph-name="xiala-copy" unicode="&#58881;" d="M787.2 515.2c-9.6 9.6-22.4 12.8-35.2 12.8l-480-3.2c-12.8 0-25.6-3.2-35.2-12.8-19.2-19.2-19.2-48 0-67.2l240-240c0 0 0 0 0 0s0 0 0 0c3.2-3.2 9.6-6.4 12.8-9.6 0 0 3.2-3.2 3.2-3.2 16-6.4 38.4-3.2 51.2 9.6l240 243.2c22.4 22.4 19.2 51.2 3.2 70.4z"  horiz-adv-x="1024" />

    
    <glyph glyph-name="xingzhuang1kaobei3" unicode="&#58971;" d="M1225.954022 318.873781 405.221443 318.873781C380.032613 318.873781 359.645638 345.074849 359.645638 377.307518 359.645638 409.657304 380.032613 435.799814 405.221443 435.799814L1225.954022 435.799814C1251.134487 435.799814 1271.571655 409.657304 1271.571655 377.307518 1271.571655 345.074849 1251.134487 318.873781 1225.954022 318.873781ZM1225.954022 737.15393 405.221443 737.15393C380.032613 737.15393 359.645638 763.354999 359.645638 795.587667 359.645638 827.937454 380.032613 854.079963 405.221443 854.079963L1225.954022 854.079963C1251.134487 854.079963 1271.571655 827.937454 1271.571655 795.587667 1271.571655 763.354999 1251.134487 737.15393 1225.954022 737.15393ZM90.825352-127.949806C40.656831-127.949806 0-86.004673 0-34.296881 0 17.452739 40.656831 59.439701 90.825352 59.439701 140.993873 59.439701 181.650703 17.452739 181.650703-34.296881 181.650703-86.004673 140.993873-127.949806 90.825352-127.949806ZM90.825352 290.330343C40.656831 290.330343 0 332.275477 0 383.983269 0 435.732889 40.656831 477.71985 90.825352 477.71985 140.993873 477.71985 181.650703 435.732889 181.650703 383.983269 181.650703 332.275477 140.993873 290.330343 90.825352 290.330343ZM90.825352 708.610493C40.656831 708.610493 0 750.555626 0 802.263418 0 854.013039 40.656831 896 90.825352 896 140.993873 896 181.650703 854.013039 181.650703 802.263418 181.650703 750.555626 140.993873 708.610493 90.825352 708.610493ZM405.221443 17.519664 1225.954022 17.519664C1251.134487 17.519664 1271.571655-8.622845 1271.571655-40.972632 1271.571655-73.2053 1251.134487-99.406369 1225.954022-99.406369L405.221443-99.406369C380.032613-99.406369 359.645638-73.2053 359.645638-40.972632 359.645638-8.622845 380.032613 17.519664 405.221443 17.519664Z"  horiz-adv-x="1272" />

    
    <glyph glyph-name="wode" unicode="&#59292;" d="M671.985378 314.107131c72.853605 51.463708 120.433746 136.325971 120.433746 232.305297 0 156.984764-127.253922 284.237687-284.231491 284.237687-156.97657 0-284.229492-127.254122-284.229492-284.237687 0-99.322659 50.95825-186.731596 128.144518-237.55194-144.190839-62.894358-245.844717-205.100942-249.830215-371.507718l40.615063 0c4.288892 161.531881 110.562439 297.643398 256.7843 346.299809 33.439528-13.826226 70.083284-21.471642 108.517025-21.471642 41.739301 0 81.376027 8.998299 117.07922 25.158942 152.24258-45.1326 264.121126-184.162538 268.52434-349.986109l40.61906 0C930.308435 108.561891 822.818713 254.155778 671.985378 314.107131zM508.187633 302.794801c-134.548176 0-243.625822 109.073648-243.625822 243.617627 0 134.554172 109.077645 243.623623 243.625822 243.623623 134.550175 0 243.629819-109.069451 243.629819-243.623623C751.817452 411.86745 642.737808 302.794801 508.187633 302.794801z"  horiz-adv-x="1024" />

    
    <glyph glyph-name="tuichu4" unicode="&#59093;" d="M756.222257 703.550896c-8.343015 6.89913-19.044752 11.04659-30.716582 11.04659-26.63666 0-48.229444-21.592784-48.229444-48.229444 0-14.973016 6.823406-28.351722 17.530258-37.198204l-0.054235-0.066515c0.35918-0.2415 0.713244-0.490164 1.071402-0.733711 1.51654-1.186012 3.097548-2.292206 4.752234-3.292999 84.007299-59.280128 138.882094-157.089781 138.882094-267.725554 0-180.849928-146.608056-327.457983-327.457983-327.457983s-327.457983 146.608056-327.457983 327.457983c0 109.951181 54.19532 207.238948 137.323599 266.626523l-0.152473 0.258896c14.767332 8.243755 24.759917 24.016996 24.759917 42.131563 0 26.63666-21.592784 48.229444-48.229444 48.229444-12.235672 0-23.39892-4.564969-31.902594-12.07399-107.73163-76.809363-177.99081-202.780403-177.99081-345.172437 0-233.974869 189.673897-423.648766 423.648766-423.648766s423.648766 189.673897 423.648766 423.648766C935.648766 500.376521 864.767416 626.838747 756.222257 703.550896zM560.095391 495.556749c0-26.561959-21.533432-48.095391-48.095391-48.095391l0 0c-26.561959 0-48.095391 21.533432-48.095391 48.095391L463.904609 783.745357c0 26.561959 21.533432 48.095391 48.095391 48.095391l0 0c26.561959 0 48.095391-21.533432 48.095391-48.095391L560.095391 495.556749z"  horiz-adv-x="1024" />

    
    <glyph glyph-name="shouye1" unicode="&#58913;" d="M1002.438806 693.697561 932.507099 871.02439c-4.995122 14.985366-19.980488 24.97561-34.965854 24.97561L163.258318 896C148.272952 896 133.287586 886.009756 128.292464 871.02439L58.360757 688.702439c-29.970732-74.926829-7.492683-162.341463 54.946341-219.785366l0-559.453659c0-19.980488 17.482927-37.463415 37.463415-37.463415l759.258537 0c19.980488 0 37.463415 17.482927 37.463415 37.463415L947.492464 473.912195C1009.931489 521.365854 1032.409538 611.278049 1002.438806 693.697561zM128.292464 661.229268 188.233928 821.073171l684.331707 0L932.507099 666.22439c19.980488-54.946341 4.995122-114.887805-39.960976-142.360976-2.497561 0-2.497561-2.497561-4.995122-2.497561-7.492683 0-17.482927 19.980488-27.473171 34.965854-14.985366 29.970732-39.960976 74.926829-92.409756 74.926829-52.44878 0-77.42439-44.956098-92.409756-74.926829-7.492683-14.985366-19.980488-34.965854-27.473171-34.965854-7.492683 0-17.482927 19.980488-27.473171 34.965854-14.985366 29.970732-39.960976 74.926829-92.409756 74.926829-52.44878 0-77.42439-44.956098-92.409756-74.926829-7.492683-14.985366-19.980488-34.965854-27.473171-34.965854-7.492683 0-17.482927 19.980488-27.473171 34.965854-14.985366 29.970732-39.960976 72.429268-92.409756 72.429268-52.44878 0-74.926829-44.956098-92.409756-77.42439-7.492683-14.985366-19.980488-37.463415-24.97561-37.463415-2.497561 0-2.497561 0-7.492683 2.497561C125.794903 558.829268 108.311977 613.77561 128.292464 661.229268zM647.785147-53.073171l-234.770732 0L413.014416 241.639024c0 2.497561 2.497561 7.492683 7.492683 7.492683l222.282927 0c2.497561 0 7.492683-2.497561 7.492683-7.492683L650.282708-53.073171zM697.736367-53.073171 697.736367 241.639024c0 32.468293-24.97561 57.443902-57.443902 57.443902l-222.282927 0c-32.468293 0-57.443902-24.97561-57.443902-57.443902L360.565635-53.073171l-174.829268 0L185.736367 443.941463c42.458537 7.492683 62.439024 44.956098 77.42439 74.926829 7.492683 14.985366 19.980488 37.463415 24.97561 37.463415 7.492683 0 17.482927-19.980488 27.473171-34.965854 14.985366-29.970732 39.960976-72.429268 92.409756-72.429268 52.44878 0 77.42439 44.956098 92.409756 74.926829 7.492683 14.985366 19.980488 34.965854 27.473171 34.965854 7.492683 0 17.482927-19.980488 27.473171-34.965854 14.985366-29.970732 39.960976-74.926829 92.409756-74.926829 52.44878 0 77.42439 44.956098 92.409756 74.926829 7.492683 14.985366 19.980488 34.965854 27.473171 34.965854 7.492683 0 17.482927-19.980488 27.473171-34.965854 14.985366-27.473171 34.965854-64.936585 77.42439-72.429268L872.565635-53.073171 697.736367-53.073171z"  horiz-adv-x="1024" />

    
    <glyph glyph-name="caidan" unicode="&#58924;" d="M512 786.285714m-109.714286 0a3 3 0 1 0 219.428571 0 3 3 0 1 0-219.428571 0ZM512 384m-109.714286 0a3 3 0 1 0 219.428571 0 3 3 0 1 0-219.428571 0ZM512-18.285714m-109.714286 0a3 3 0 1 0 219.428571 0 3 3 0 1 0-219.428571 0Z"  horiz-adv-x="1024" />

    
    <glyph glyph-name="fanhui1" unicode="&#58970;" d="M714.528 581.246 471.494 581.246 471.494 787.455 0.157 551.788l471.336-235.672L471.493 507.601l243.034 0c132.56 0 235.674-95.742 235.674-220.939 0-125.2-95.745-220.939-228.314-220.939L265.284 65.723c-22.09 0-36.827-14.725-36.827-36.83 0-22.085 14.732-36.815 36.827-36.815l456.604 0c169.39 0 301.954 132.56 301.954 294.584C1023.842 448.684 883.913 581.246 714.528 581.246z"  horiz-adv-x="1024" />

    
    <glyph glyph-name="shouji" unicode="&#59452;" d="M512.001023-127.998977c-282.765329 0-512.001023 229.229554-512.001023 511.997953 0 282.765329 229.235694 512.001023 512.001023 512.001023 282.76226 0 511.997953-229.235694 511.997953-512.001023C1023.998977 101.230577 794.763283-127.998977 512.001023-127.998977zM742.384855 609.51192c0 11.294118-2.589962 21.886254-7.592856 31.706826-4.93945 9.896295-11.76381 18.633196-20.587692 25.969205-8.791136 7.514062-19.118239 13.326383-30.794046 17.500408-11.850791 4.279424-24.560127 6.498953-38.025678 6.498953L378.617463 691.187311c-13.558672 0-26.176934-2.219529-38.028748-6.498953-11.675807-4.177094-21.99984-9.986345-30.794046-17.500408-8.820811-7.336009-15.675871-16.07291-20.648066-25.969205-4.999824-9.820571-7.526342-20.412708-7.526342-31.706826l0-451.734007c0-11.176439 2.526518-21.777785 7.526342-31.348672 4.972195-9.724382 11.824185-18.196249 20.648066-25.722591 8.797275-7.339079 19.118239-13.149353 30.794046-17.486082 11.850791-4.279424 24.470077-6.411973 38.028748-6.411973l266.76712 0c13.465552 0 26.173864 2.132549 38.028748 6.411973 11.672737 4.336728 21.99984 10.14598 30.794046 17.486082 8.820811 7.526342 15.645172 15.998209 20.587692 25.722591 4.998801 9.570887 7.589786 20.172234 7.589786 31.348672l0 0L742.384855 609.51192 742.384855 609.51192zM341.676479 577.233072l339.763938 0 0-386.37814L341.676479 190.854932 341.676479 577.233072zM559.648754 623.028636l-95.382441 0c-2.972675 0-5.764226 0.99976-8.206834 3.056585-2.617591 2.059895-3.912061 4.885215-3.912061 8.456518 0 3.602002 1.469453 6.411973 4.177094 8.381817 2.761876 2.044545 5.415282 2.988024 7.9418 2.988024l95.382441 0c3.056585 0 5.761156-0.942456 8.321443-2.988024 2.589962-1.969845 3.794381-4.779815 3.794381-8.381817 0-3.572326-1.204419-6.396623-3.794381-8.456518C565.40991 624.028396 562.705339 623.028636 559.648754 623.028636zM511.675615 171.953632c11.001455 0 20.235678-3.496602 27.764066-10.161329 7.532482-6.74966 11.236813-15.115105 11.236813-24.939769 0-9.468558-3.704331-17.678461-11.236813-24.602082-7.529412-6.914411-16.762611-10.414083-27.764066-10.414083-10.585997 0-19.732216 3.499672-27.526662 10.414083-7.706442 6.923621-11.588827 15.130454-11.588827 24.602082 0 9.823641 3.882385 18.190109 11.588827 24.939769C491.943399 168.45703 501.089618 171.953632 511.675615 171.953632z"  horiz-adv-x="1025" />

    
    <glyph glyph-name="xiaolian1" unicode="&#59023;" d="M511.601422 832.25621c-247.565399 0-448.25621-200.694905-448.25621-448.25621 0-247.570515 200.690812-448.257234 448.25621-448.257234 247.566422 0 448.25314 200.686718 448.25314 448.257234C959.854563 631.562329 759.167844 832.25621 511.601422 832.25621zM639.593492 577.167464c8.187473 8.18338 19.071358 12.694113 30.646997 12.694113 23.899316 0 43.341111-19.443841 43.341111-43.344181 0-23.899316-19.440771-43.344181-43.341111-43.344181-23.89727 0-43.338041 19.444864-43.338041 43.344181C626.900402 558.089967 631.407042 568.977945 639.593492 577.167464zM361.954147 589.862601c23.899316 0 43.344181-19.443841 43.344181-43.344181 0-23.899316-19.444864-43.344181-43.344181-43.344181s-43.341111 19.444864-43.341111 43.344181C318.61406 570.417737 338.054831 589.862601 361.954147 589.862601zM740.697167 274.15115c-56.013735-67.348897-138.322345-105.97052-225.819119-105.97052-91.946109 0-176.823218 41.826618-232.873792 114.761744-3.466961 4.517897-4.977361 10.111289-4.245697 15.745612 0.729617 5.64865 3.621481 10.66899 8.126075 14.127765 3.755534 2.908236 8.252964 4.440126 13.008268 4.440126 6.598278 0 12.914124-3.113921 16.885576-8.324596 47.923476-62.342884 120.491235-98.106412 199.095477-98.106412 74.812893 0 145.18259 33.031301 193.07025 90.62195 4.059456 4.859681 10.035564 7.647167 16.397459 7.647167 4.966105 0 9.80225-1.74883 13.615089-4.919033 4.371564-3.629667 7.059789-8.756431 7.583722-14.426571C746.060315 284.073126 744.341161 278.538063 740.697167 274.15115z"  horiz-adv-x="1024" />

    
    <glyph glyph-name="02" unicode="&#58889;" d="M993.882 498.447l-322.259 51.2-159.624 316.235-159.624-316.235-322.259-51.2 225.882-246.965-60.235-349.365 316.235 165.647 319.247-165.647-60.235 349.365 222.871 246.965zM512 134.024l-237.929-123.482 45.176 259.012-168.659 186.729 243.953 39.153 117.459 234.918 117.459-237.929 243.953-39.153-168.659-186.729 45.176-259.012-237.929 126.494z"  horiz-adv-x="1024" />

    
    <glyph glyph-name="youxiang" unicode="&#59028;" d="M677.288 359.097l-167.315-156.052-170.532 156.052-246.146-230.058h831.748l-247.756 230.058zM954.002 608.459v-423.114l-238.1 209.145 238.1 213.969zM64.336 605.244l231.666-212.361-231.666-207.534v419.895zM93.294 661.55l418.287-389.33 413.461 389.33h-831.748z"  horiz-adv-x="1024" />

    
    <glyph glyph-name="tuichu5" unicode="&#58919;" d="M888.988 403.99l-128 160a32.006 32.006 0 0 1-24.994 12.012c-3.54 0-7.115-0.588-10.586-1.806A32 32 0 0 1 704 544v-96H448c-35.346 0-64-28.654-64-64 0-35.347 28.654-64 64-64h256v-96a32 32 0 0 1 56.988-19.99l128 160c9.35 11.686 9.35 28.293 0 39.98zM576 128H320v0.01c-0.168-0.001-0.333-0.01-0.5-0.01-35.071 0-63.5 28.654-63.5 64V576h0.01c-0.001 0.167-0.01 0.333-0.01 0.5 0 35.07 28.653 63.5 64 63.5h256c35.346 0 64 28.653 64 64 0 35.346-28.654 64-64 64H256c-70.692 0-128-57.308-128-128v-512c0-70.691 57.308-128 128-128h320c35.346 0 64 28.654 64 64 0 35.347-28.654 64-64 64z"  horiz-adv-x="1024" />

    
    <glyph glyph-name="tuichu6" unicode="&#58897;" d="M512.686 60.002c-88.622 0-171.939 34.511-234.604 97.177-62.665 62.664-97.176 145.981-97.176 234.604s34.511 171.94 97.176 234.604c62.665 62.665 145.982 97.176 234.604 97.176s171.939-34.511 234.604-97.176c62.664-62.665 97.175-145.982 97.175-234.604s-34.511-171.939-97.175-234.604c-62.665-62.665-145.982-97.177-234.604-97.177z m0 623.561c-160.889 0-291.781-130.892-291.781-291.781 0-160.888 130.892-291.78 291.781-291.78 160.888 0 291.779 130.893 291.779 291.78 0 160.889-130.892 291.781-291.779 291.781zM656.49 574.967l28.14-28.428-339.09-335.656-28.14 28.428zM358.443 577.287L695.006 239.1l-28.352-28.216L330.09 549.071z"  horiz-adv-x="1024" />

    
    <glyph glyph-name="shouye2" unicode="&#58898;" d="M936.77037 385.517037L553.718519 768.568889c-8.343704 8.343704-21.238519 8.343704-29.582223 0L141.084444 385.517037c-6.068148-8.343704-6.068148-21.238519 0-27.306667 8.343704-8.343704 21.238519-8.343704 29.582223-2.275555l48.545185 48.545185V8.533333c0-12.894815 8.343704-21.238519 21.238518-21.238518h212.385186c12.894815 0 21.238519 8.343704 21.238518 21.238518V285.392593h127.431111V8.533333c0-12.894815 8.343704-21.238519 21.238519-21.238518h212.385185c12.894815 0 21.238519 8.343704 21.238518 21.238518V405.238519l48.545186-48.545186c8.343704-8.343704 21.238519-8.343704 29.582222 0 10.619259 7.585185 10.619259 20.48 2.275555 28.823704z m-121.362963-354.986667H644.740741V307.38963c0 12.894815-8.343704 21.238519-21.238519 21.238518H453.594074c-12.894815 0-21.238519-8.343704-21.238518-21.238518v-276.85926H262.447407v417.185186L538.548148 723.816296l276.859259-276.859259v-416.426667z"  horiz-adv-x="1024" />

    
    <glyph glyph-name="xiala" unicode="&#58629;" d="M506.563 470.652l-148.743-148.776c-9.179-9.179-11.897-22.866-6.94-34.859 4.957-11.961 16.63-19.732 29.55-19.733h297.519c12.92 0 24.592 7.803 29.55 19.733 1.631 3.966 2.431 8.123 2.431 12.249 0 8.316-3.262 16.502-9.37 22.611l-148.776 148.776c-6.012 6.012-14.136 9.37-22.611 9.37s-16.63-3.39-22.611-9.37z"  horiz-adv-x="1024" />

    
    <glyph glyph-name="caidan1" unicode="&#58961;" d="M90.996 637.941h841.65c50.253 0 90.995 41.283 90.995 92.211 0 50.942-40.742 92.224-90.995 92.224H90.996C40.742 822.376 0 781.094 0 730.152c0-50.927 40.742-92.211 90.996-92.211z m841.65-165.996H90.996C40.742 471.945 0 430.649 0 379.721c0-50.928 40.742-92.224 90.996-92.224h841.65c50.253 0 90.995 41.296 90.995 92.224 0.001 50.928-40.742 92.224-90.995 92.224z m0-350.431H90.996C40.742 121.514 0 80.218 0 29.289s40.742-92.225 90.996-92.225h841.65c50.253 0 90.995 41.296 90.995 92.225s-40.742 92.225-90.995 92.225z"  horiz-adv-x="1024" />

    
    <glyph glyph-name="tuichu7" unicode="&#59330;" d="M684.64 90H414.64V722L101.728 854H686.64v-296h50V896H0l0.376-849.042L414.64-128v174h318V342h-48zM1023.998 456.358L834.64 628v-114H514.64v-132h320v-116z"  horiz-adv-x="1024" />

    
    <glyph glyph-name="dianhua11" unicode="&#58625;" d="M142.81 146.788c1.234-1.896 2.603-3.627 4.087-5.245 13.434-14.503 35.205-17.173 51.739-6.268 8.995 5.892 15.158 14.946 17.333 25.519 2.182 10.551 0.12 21.314-5.81 30.285-47.601 72.361-64.181 159.066-46.675 244.122 17.543 85.064 67.055 158.118 139.378 205.755 9.017 5.916 15.166 14.954 17.326 25.512 2.182 10.551 0.112 21.306-5.795 30.3-1.257 1.873-2.649 3.643-4.109 5.253-5.75 6.201-13.155 10.355-21.434 12.072-10.558 2.174-21.328 0.105-30.306-5.803-186.678-122.919-238.621-374.807-115.731-561.501v0zM521.868 623.986c-0.586 2.784-14.050 64.549-13.269 123.131 0.346 22.11 0.904 59.123 23.18 80.435 15.292 14.48 38.622 21.012 71.269 19.884 8.323-0.076 81.069-2.559 141.244-62.734 16.482-16.482 30.796-36.034 42.565-58.1 12.388-23.164 22.14-49.566 28.975-78.374 28.808-111.923 29.606-219.738 2.686-349.792-46.255-223.532-159.239-341.605-181.418-362.971-100.635-100.334-223.848-56.172-237.574-50.814-19.214 7.037-33.611 15.578-44.176 26.144-5.058 5.058-9.219 10.59-12.335 16.444-6.427 12.026-11.982 32.089-1.942 59.348 13.562 37.042 38.728 84.425 69.117 129.986 31.435 47.39 64.594 36.357 96.661 25.679l1.212-0.475c0 0 53.585-22.035 62.976-25.948 9.257-3.809 20.018 0.15 24.519 9.105 30.946 61.441 55.563 132.628 71.216 205.838 15.406 72.030 22.082 146.046 19.372 214.079-0.226 4.832-2.183 9.377-5.615 12.809l-1.219 1.099c-4.018 3.417-9.407 5.042-14.735 4.381-13.139-1.641-32.609-3.47-50.769-3.026-34.415 0.865-58.512 8.677-73.685 23.849-4.154 4.154-7.669 8.888-10.431 14.074-2.639 4.974-5.484 14.441-7.826 25.948v0zM447.115 309.851c5.916-9.016 7.993-19.764 5.818-30.307-2.152-10.582-8.323-19.643-17.324-25.573-16.565-10.844-38.314-8.211-51.71 6.298-1.505 1.597-2.883 3.35-4.124 5.237-52.515 79.79-30.3 187.47 49.505 240.030 8.94 5.899 19.679 7.969 30.268 5.824 8.286-1.738 15.713-5.93 21.433-12.071 1.454-1.618 2.845-3.357 4.079-5.253 5.969-8.994 8.029-19.786 5.84-30.344-2.16-10.529-8.308-19.568-17.309-25.497-20.651-13.607-34.8-34.438-39.781-58.747-4.983-24.247-0.286-48.963 13.304-69.598v0zM328.207 250.186c12.192-18.574 7.037-43.597-11.5-55.813-16.564-10.904-38.322-8.278-51.747 6.232-1.467 1.602-2.867 3.364-4.101 5.259-42.499 64.579-57.28 141.915-41.649 217.873 15.647 75.882 59.816 141.093 124.402 183.584 9.001 5.93 19.778 8.007 30.307 5.802 8.316-1.707 15.698-5.855 21.425-12.048 1.484-1.619 2.875-3.387 4.11-5.284 12.2-18.505 7.052-43.551-11.515-55.796-46.592-30.667-78.502-77.749-89.798-132.575-11.28-54.809-0.631-110.628 30.065-157.236z"  horiz-adv-x="1024" />

    
    <glyph glyph-name="shouye3" unicode="&#58935;" d="M979.781818 377.018182L551.563636 849.454545c-11.636364 11.636364-23.272727 18.618182-39.563636 18.618182s-27.927273-6.981818-39.563636-18.618182L44.218182 377.018182c-16.290909-16.290909-18.618182-39.563636-11.636364-60.509091 9.309091-20.945455 27.927273-34.909091 48.872727-34.909091h93.09091v-337.454545c0-23.272727 20.945455-44.218182 44.218181-44.218182h584.145455c25.6 0 44.218182 18.618182 44.218182 44.218182V281.6h90.763636c23.272727 0 41.890909 13.963636 48.872727 34.909091 11.636364 20.945455 6.981818 44.218182-6.981818 60.509091z m-100.072727-37.236364h-90.763636v-379.345454H235.054545V339.781818H88.436364L512 807.563636l423.563636-467.781818h-55.854545z"  horiz-adv-x="1024" />

    
    </font>
</defs>
</svg>
